<svg viewBox="0 0 40 38" fill="none" xmlns="http://www.w3.org/2000/svg"><g clip-path="url(#clip0_10806_5611)"><path d="M0 38V0h38v38H0Z" fill="#00A3E4"/><path d="M39.3921 37.9938h-.22v-.7785h.2207c.0609.0909.1259.1875.1954.2915.0678-.1018.1324-.1985.1969-.2951H40v.7756c-.0598.0247-.1269.0051-.2062.0116v-.3874c-.009-.0033-.018-.0066-.0271-.0102-.0562.0821-.1128.1639-.1795.2609-.0617-.0905-.1179-.173-.1955-.2864v.418h.0004Z" fill="#151311"/><path d="M38.4238 37.2106h.6484c.027.0643.0065.1319.0133.2017-.0634.0342-.1323.004-.2127.0236v.5576h-.2395v-.5638h-.2091v-.2191h-.0004Z" fill="#161412"/><path d="M24.5941 2c.0535.00073.1071.00254.1603.00254H35.974c.0364.05334.0239.10015.0239.1437.0007 5.90509.0007 11.81056.0004 17.71566 0 .0406-.0032.0813-.0054.1219-.0461.0258-.0964.0131-.1443.0131-11.2299.0007-22.4595.0007-33.68936 0-.04823 0-.09824.0112-.14503-.0116-.02215-.0483-.01179-.0987-.01179-.1481-.00071-5.8913-.00071-11.78224 0-17.67354 0-.04464-.0075-.09036.00964-.14189.05002-.02975.10896-.01488.16433-.01488 7.4148-.00072 14.82921-.00072 22.24401-.00108.0579 0 .1161.00762.1737-.00581Z" fill="#FDFDFD"/><path d="M4.22909 10.4836c.25097-.89955.50231-1.79874.75544-2.70557h.62491c.25278.89992.50592 1.80021.7587 2.70047.00937.0011.01875.0018.02776.0029.23114-.90134.46192-1.80272.69378-2.70701h.76374C7.50905 9.0156 7.16721 10.2485 6.8232 11.4889h-.83153c-.22681-.7988-.45434-1.60136-.68188-2.40388-.00865.00037-.01731.00109-.02596.00182-.22465.79852-.4493 1.59666-.67576 2.40246h-.83153c-.34256-1.2343-.68549-2.47079-1.03093-3.716h.76373c.23042.89956.46229 1.80312.69379 2.7067.00865.0011.01767.0022.02632.0033l-.00036.0003ZM5.2438 4.81401c.27044.1741.43199.40562.47093.72074.07284.59135-.36888 1.14962-.95918 1.19324-.56613.04179-1.13407.0109-1.70128.01635-.01226 0-.02488-.00799-.04255-.01417V3.04033c.02236-.0298.05625-.0189.08618-.0189.45038-.00072.9004-.004 1.35079.00073.39449.004.73164.13739.96495.4754.24304.35256.25746.93773-.16984 1.31609v.00036ZM16.0742 11.1989v1.3539h-.6765V8.84514h.6722v.29149c.0865-.07632.1507-.14429.2253-.19627.3823-.26641 1.0054-.22643 1.3775.08396.7096.59208.7215 1.65698.0242 2.26108-.4656.4031-1.2401.3678-1.5683-.0432-.0104-.0131-.0263-.0211-.0544-.0433ZM22.5072 11.4929h-.6667v-.3111c-.1612.1788-.3278.2937-.5333.3468-.6257.1621-1.2722-.1858-1.5088-.8145-.2224-.5907-.0685-1.23654.3938-1.65197.4659-.41834 1.2415-.38854 1.5906.0298.0105.01272.0249.02217.0555.04834v-.30058h.6689v2.65321ZM8.6986 5.69359H6.71749c.07825.52374.92601.68839 1.32699.24097.17561.10213.35338.20572.54017.31439-.2214.31657-.51673.49285-.88526.54664-.40026.05852-.78105.00546-1.12397-.22498-.44461-.29912-.66602-.88284-.55135-1.45092.21311-1.05767 1.31076-1.3299 1.98976-.95081.50123.27986.70496.73855.70063 1.30263-.00036.06761-.00937.13521-.01586.22208ZM28.2933 10.4447h-1.9678c.0462.2145.168.3566.3559.4285.3556.1363.6873.1007.974-.1879.1774.1033.3552.2065.5409.3148-.211.3028-.4922.4841-.8449.5397-.5459.0858-1.0421-.0145-1.424-.4525-.4143-.4747-.4244-1.30334-.0314-1.80237.409-.51866 1.1478-.67713 1.728-.37.5099.26968.8211.97152.6696 1.52977h-.0003ZM15.1273 11.4926h-.789c-.308-.3871-.622-.7815-.9549-1.1994v1.1979h-.6736V7.77911h.6668v2.23129c.3195-.41145.6148-.79163.9105-1.17289h.8099c-.3595.44669-.7061.87739-1.0566 1.31279.3603.4449.7169.8858 1.0865 1.3423h.0004ZM9.09814 8.76299c.77564-.00545 1.40056.62006 1.40126 1.40221.0007.7764-.6094 1.3946-1.38612 1.4055-.76554.0106-1.40163-.6262-1.40271-1.404-.00108-.7742.61626-1.39862 1.38757-1.40371ZM25.5001 10.8772c-.3295.5623-.9584.8131-1.5804.6412-.595-.1647-1.0003-.7179-.9978-1.3612.0025-.63458.4107-1.18195 1.0021-1.34405.6198-.16974 1.2415.0785 1.5664.63532-.1911.1134-.3826.22717-.573.33984-.3487-.40526-.7983-.46341-1.1113-.14866-.2799.28132-.2669.80035.0194 1.06825.2434.2278.7948.2958 1.0966-.164.1893.1094.3793.2188.5773.333l.0007.0003ZM10.9394 4.57559c-.1882.10395-.3761.2079-.5712.31548-.11-.18827-.2646-.28604-.48136-.26132-.11287.01272-.2142.04688-.24016.17664-.02704.13593.07428.185.17056.22352.21676.08687.44716.13194.66456.2199.3152.12721.5059.34492.5131.69311.0069.33838-.1478.58808-.4489.74437-.4587.23806-1.15065.14865-1.50187-.19736-.08691-.08541-.15794-.18246-.2077-.30603.19363-.11013.38403-.21844.58344-.33184.1208.28604.34617.36564.62673.33293.0436-.00509.0894-.016.1284-.03599.0656-.03343.12-.08177.1244-.16464.0043-.0836-.0448-.13557-.11-.17301-.1223-.07051-.25965-.10031-.39235-.14066-.12909-.03925-.25638-.08287-.38007-.13629-.25638-.11122-.43776-.28677-.46625-.58045-.03173-.32457.07825-.58771.35735-.76726.54594-.3511 1.30432-.17373 1.63172.38926l-.0004-.00036ZM28.4459 10.9358c.1969-.112.384-.2189.5719-.3257.0552.0338.0606.0999.0967.145.142.1774.4785.2493.679.1432.1507-.0799.1575-.242.0108-.3318-.132-.0811-.2842-.1098-.4299-.1541-.1377-.0418-.2733-.0898-.4031-.1516-.5712-.2715-.5059-.98897-.115-1.28337.4576-.34492 1.3425-.30203 1.693.34929-.1861.10322-.3725.20681-.5637.31294-.0623-.06615-.1034-.15157-.1842-.19627-.128-.07088-.2614-.09305-.4024-.04144-.083.03017-.1396.08723-.1486.17592-.009.08977.0534.14066.1233.17737.1244.06505.2618.09449.3949.13338.1255.03635.2481.07888.3674.13158.2665.1178.4396.3075.463.6128.0256.3329-.0905.595-.3804.7673-.4655.2769-1.1795.2086-1.5513-.1465-.0927-.0883-.1655-.1905-.2221-.3188l.0007.0008ZM12.781 6.12937v.61461c-.286.02471-.568.04616-.8402-.0567-.3036-.11486-.4057-.37437-.419-.66877-.017-.37145-.008-.74436-.0101-1.11618V4.7475h-.4497v-.65459h.4439v-.54338c.2311-.07051.4525-.13775.6862-.20898v.74436h.5878v.65641h-.5863c0 .39653-.0029.78071.0018 1.16488.001.10541.0656.17192.1694.20136.1335.03816.2687.01272.4162.02217v-.00036ZM18.6237 7.61592h.6606v3.87198h-.6606V7.61592ZM11.582 11.4926h-.6711V8.84078h.6685v.39072c.1836-.30167.4497-.43651.7948-.44814v.75926c-.1634-.00545-.3188.01018-.4619.08614-.1901.10068-.2954.26169-.3152.47464-.0339.3668-.0083.735-.0151 1.1024-.0018.0905 0 .181 0 .2868ZM31.8621 7.55522h.167v.61352h-.1623v-.28895c-.0086-.00327-.0173-.00618-.0259-.00945-.0415.05997-.083.1203-.1335.19299-.0508-.06905-.0962-.13048-.1568-.21262v.30422c-.0574.03162-.1093.0178-.1695.01308v-.60698c.0552-.01853.1075-.01054.1662-.00545.0491.07051.0992.1432.158.22789.0566-.0825.1064-.15483.1565-.22825h.0003Z" fill="#151311"/><path d="M30.9574 7.73222c-.0667-.00363-.1111-.00581-.1558-.00836-.0274-.0556-.0162-.10794-.0094-.16682h.5041c.0184.05052.013.10213.0044.15338-.0466.03307-.1003.00472-.1591.0298v.42779h-.1842v-.43579Z" fill="#181614"/><path d="M31.5369 34.4787c-.0148.3726-.0757.7709-.371 1.0933-.4216.4609-1.2412.3984-1.5535-.145-.3743-.651-.3753-1.3306.0029-1.9791.3559-.6102 1.3065-.5909 1.6725.0131.1691.2795.2484.5896.2495 1.0174l-.0004.0003ZM31.6815 33.5893c.1608-.3424.4176-.5353.7746-.5735.3638-.0389.6851.0629.8906.3889.2002.3177.1764.6466-.0104.9653-.1111.189-.2607.3468-.4147.5002-.1338.1333-.2668.2671-.4226.4234h1.019v.527h-1.8098v-.4191c.2045-.2115.4251-.4379.6437-.6665.1561-.1636.3216-.3181.4547-.5027.0212-.0291.0414-.0593.0588-.0909.1226-.226.0948-.4412-.0696-.5488-.172-.1127-.4349-.0552-.5799.129-.0303.0386-.0552.0814-.089.1316-.149-.0883-.2936-.1741-.4454-.2639ZM28.05 35.2994h1.0158v.5059c-.1143.0193-1.6634.0222-1.8167.0037v-.4027c.2838-.2941.5766-.5965.8676-.9.1097-.1141.22-.2286.2961-.3696.115-.213.0923-.4176-.0559-.5314-.1554-.1192-.406-.0843-.5629.0825-.0429.0455-.0764.0996-.1244.1629-.1432-.084-.2881-.1694-.4439-.2606.146-.313.3776-.4976.7032-.5656.5073-.1061.9923.1956 1.0821.6757.0649.3467-.0645.636-.2856.8861-.2091.237-.4341.4594-.6757.7131h.0003ZM34.6511 33.0692h.5773c-.3004.5928-.5932 1.1718-.8939 1.7653h.7028v-.6375h.543v.6394c.1046.0051.1922.0091.286.0138v.4845c-.0862.0425-.1796-.0011-.2795.0338v.4445h-.5448v-.4536h-1.2899c.0112-.2403-.0436-.4616.0761-.6848.2845-.5299.5503-1.0704.8229-1.6054ZM26.4049 31.6688H26v-2.1102h.4017v.8243h.7821v-.8214c.1378-.0258.2662-.0106.4046-.0109v2.116h-.3977v-.8628h-.7858v.8654-.0004ZM32.1316 31.5667c.1853-.543.3707-1.086.5564-1.629.0436-.1276.0887-.2548.1341-.3849h.5193c.243.6974.4879 1.4.7367 2.1135h-.4486c-.04-.1156-.0826-.2377-.1277-.3668h-.838c-.0433.1156-.0869.233-.1309.3504-.1413.0287-.2827.0073-.4183.012-.0238-.0472-.0093-.0727.0166-.0952h.0004ZM29.1423 30.7965h-.7832v.4703h.8744v.3998h-1.2866v-2.1124h1.2642c.0242.125.0119.2493.0073.3889h-.859v.4463h.7825v.4071h.0004ZM34.1271 31.1858c.115-.068.2232-.1316.3274-.193.0523.0167.057.0629.0779.0956.1276.1984.4453.2813.6501.1686.1331-.0734.1508-.2232.0383-.3249-.0725-.0654-.1641-.0923-.2532-.1225-.1446-.0491-.2931-.0876-.4305-.157-.2171-.1098-.3339-.2828-.326-.5332.0079-.2512.1269-.4314.3487-.5387.4075-.1973.887-.0214 1.0872.4028-.1111.0646-.2229.1293-.3401.1977-.1067-.1923-.2556-.2973-.477-.261-.1014.0167-.1818.064-.2005.173-.0188.1105.0458.1763.1366.225.1281.0687.2698.0996.4032.1534.0624.0251.1269.0461.1879.0745.2354.109.3634.2875.3512.5568-.0126.2715-.1533.4478-.3967.5459-.4601.1854-.9873 0-1.1697-.4085-.0055-.012-.0073-.0258-.0152-.0542l.0004-.0003Z" fill="#FEFEFE"/><path d="M32.1316 31.5667c-.0018.0222-.0039.044-.0072.0832h.4093c-.0133.0349-.044.0247-.0685.0247-.5084.0004-1.0169.0004-1.5253 0-.017 0-.0343-.0051-.0588-.0091v-2.112h.4071v1.7115h.7811c.0688.1011-.0192.2181.0631.3024l-.0008-.0007Z" fill="#FDFEFE"/><path d="M29.4845 31.6641v-2.1066h.4017v1.7097h.7987c.0249.1356.0087.261.0123.3969h-1.2127Z" fill="#FEFEFE"/><path d="M30.9993 34.438c0 .2101-.0176.4169-.1092.6106-.0902.1905-.238.2912-.449.2904-.2113-.0007-.3667-.1003-.4428-.2966-.1572-.4052-.1576-.8163.0058-1.2197.0764-.189.2329-.2872.4363-.2879.203-.0011.3519.0978.4428.281.0974.1959.1172.4074.1161.6226v-.0004Z" fill="#00A3E5"/><path d="M33.0836 30.0278c.1013.3064.1907.5764.2841.8585h-.5686c.0923-.2784.1821-.5488.2845-.8585Z" fill="#01A4E5"/><path d="M3.74194 5.18037c.28955 0 .56865-.00727.84703.00218.25026.00836.41721.19845.41216.44561-.00505.24606-.16876.41979-.41648.42561-.27838.00654-.55712.00145-.84307.00145v-.87521l.00036.00036ZM3.74084 4.52325v-.81451c.26071 0 .51602-.01127.77023.00327.21023.01199.35411.19699.34978.41071-.00469.22207-.1601.3929-.37718.39871-.24557.00618-.49149.00146-.74246.00146l-.00037.00036ZM16.0731 10.1659c0-.43574.2972-.74396.7208-.74723.4281-.00363.736.3093.7353.74763-.0007.4372-.3123.7549-.7356.7498-.4219-.0051-.7201-.3158-.7205-.7502ZM21.1211 9.4194c.4294.01054.7302.33111.7179.7662-.0119.4299-.3285.7411-.7424.7302-.4284-.0109-.7234-.3282-.7155-.7691.008-.43144.3195-.73784.74-.72766v.00036Z" fill="#FEFEFE"/><path d="M8.02608 5.16184H6.71423c.02633-.28895.28343-.51321.60292-.53029.37646-.01999.64077.17337.70893.53029ZM26.318 9.91479c.0649-.33802.3307-.54192.6873-.53683.3299.00473.5805.21662.6314.53683H26.318Z" fill="#FDFDFD"/><path d="M9.81758 10.1619c.00216.4235-.30254.739-.71326.7386-.40242 0-.70676-.3129-.71073-.7302-.00396-.41325.29966-.73273.70208-.73891.40927-.00654.72011.30785.72191.73021v.0003Z" fill="#FEFEFE"/><path d="M13.2096 18.6137h-.4529v-.9421c0-.0589.0021-.1189-.0061-.1767-.0274-.1952-.1356-.2922-.3347-.3053-.1875-.0127-.3317.0818-.384.2534-.0252.0832-.0292.169-.0289.2558.0011.3031.0004.6063.0004.9149h-.4554v-2.5388h.4514v.9141c.1342-.1327.2687-.2163.4403-.2323.4216-.0392.7342.1887.7638.6157.0288.41.0061.8236.0061 1.2413ZM9.65026 17.9075H8.32652c.07464.3623.55423.4474.89716.161.11575.0679.23438.1374.35302.2068-.20878.3718-.7861.5114-1.21953.3027-.45543-.2195-.65484-.7552-.46408-1.2477.17164-.4431.67178-.6837 1.13082-.5437.46336.141.73561.6167.62599 1.1209h.00036ZM5.54879 18.6147H5.1031c-.03462-.0483-.01587-.1043-.01623-.1562-.00216-.2952.00072-.5899-.0018-.8851-.00217-.2497-.11143-.3703-.33968-.3845-.22177-.0135-.3725.1145-.39846.3504-.02885.262-.00685.5259-.0119.789-.0018.0905 0 .1814 0 .2817h-.45795v-1.8056h.44281c.03245.0487.0018.1064.02812.1737.14532-.1654.32886-.2334.53693-.2297.36997.0069.63572.2733.65808.6549.00361.0589.00577.1178.00577.177.00036.3402 0 .6804 0 1.0348v-.0004Z" fill="#1C1B1E"/><path d="M7.49063 16.547v2.0667h-.49185v-2.0612H6.3324v-.4736h1.82893v.4681H7.49063ZM11.0803 17.9703c.1266.0731.2546.1469.3819.2203-.1338.3271-.5514.5317-.9498.4692-.4555-.0716-.75405-.4151-.79263-.9119-.03246-.4173.24195-.8254.63973-.9512.4381-.1385.8686.0215 1.1052.4205-.1288.0775-.2575.1549-.3851.2316-.238-.2719-.5434-.3122-.7544-.1047-.1944.1908-.1904.5532.0076.736.2178.201.5254.1588.7471-.1094l.0004-.0004ZM3.17322 16.8022h.4475v1.8089h-.4475v-1.8089Z" fill="#1C1B1E"/><path d="M3.11271 16.2864c.00288-.149.14279-.2886.28703-.2864.14965.0026.28018.1389.27946.2919-.00072.1552-.13054.2842-.28451.2835-.15001-.0011-.28451-.1392-.28198-.289Z" fill="#1D1C1F"/><path d="M8.31714 17.5305c.05697-.2402.21167-.3605.45651-.3594.22321.0011.38331.133.42875.3594h-.88526Z" fill="#FEFEFE"/><path d="M2 22h14v14H2V22Z" fill="#ED2330"/><path d="M4.29564 34.8024h-.54822c-.22534-.8039-.45138-1.612-.68126-2.432h.50503c.1522.5879.30406 1.175.46601 1.8.17624-.6243.34203-1.2118.50886-1.8031h.41203c.16683.5857.33471 1.1756.51304 1.8028.16161-.6254.31311-1.2111.46601-1.8021h.50468c-.22778.8147-.45383 1.6225-.68022 2.4327h-.54925c-.15047-.5238-.30058-1.0476-.46045-1.604-.15743.5547-.3051 1.0743-.45591 1.6057h-.00035ZM5.3364 23.5425c-.13653.0786-.26749.1541-.39671.2286-.31033-.3372-.70982-.4239-1.06055-.2349-.31138.1681-.46741.5412-.37825.9049.0916.3727.37825.5885.7962.5993.3563.009.62762-.1643.71191-.4654h-.71818v-.4155h1.19883c.0599.4688-.08882.8962-.49423 1.1631-.50572.3327-1.29774.2119-1.68748-.2506-.42248-.5015-.41343-1.1829.02264-1.69.51895-.6038 1.57916-.5265 2.00582.1605ZM3.79853 27.7285v.79h-.46845v-2.432c.357.0118.71818-.0362 1.07309.0237.40715.0685.68683.4409.65688.8297-.03587.4681-.35491.7688-.83939.7875-.13409.0053-.26888.0007-.42213.0007v.0004ZM10.3981 23.8929c.0034-.0564.0062-.1065.0101-.1667h.4416v1.7273h-.442c-.0024-.0568-.0049-.1079-.008-.18-.1853.1834-.3981.2558-.64294.2308-.24346-.0251-.43224-.1438-.57887-.3366-.27271-.3584-.23962-.9121.06757-1.2372.23545-.2492.71714-.4117 1.15284-.0372l-.0003-.0004ZM7.6517 26.966v-.1692h.43711v1.7186c-.13688.0275-.27794.0031-.41273.0132-.04667-.0574-.01184-.118-.0397-.1876-.20097.2162-.45348.2659-.72445.2175-.194-.0344-.35178-.1426-.47368-.2996-.28978-.3734-.26993-.924.04563-1.2564.31485-.332.69693-.3473 1.16817-.0365H7.6517ZM7.46334 24.7706c.09996.3634.53812.4375.88014.1632.1118.0644.22674.1309.34899.2016-.17275.2596-.41795.3501-.7039.3737-.40263.0334-.78471-.1865-.93691-.5485-.15778-.3758-.04772-.8338.26192-1.0896.2856-.236.72932-.2677 1.05045-.0745.30894.1855.47542.5896.39322.9748H7.46334v-.0007ZM12.2147 27.8385h-1.297c.0376.1545.1219.2537.2602.293.2239.0641.4392.0595.6175-.1347.1167.0669.232.1333.3469.1991-.2059.4055-.8202.4535-1.171.2969-.4437-.1981-.6391-.6902-.4709-1.1732.1508-.433.6426-.6745 1.1031-.5527.4099.1086.7279.5798.6112 1.0712v.0004ZM9.88536 32.3663h.43014v1.4206c.0098.0052.0195.0105.0293.0153.1929-.246.3859-.4917.5792-.7381h.5349c-.2382.2937-.4635.5718-.6958.8582.2351.2885.4691.576.7147.8777h-.5207c-.2007-.2492-.4058-.5043-.6312-.7837v.7809h-.44089v-2.4309h.00035ZM6.46477 30.7236c0 .5154-.39949.9171-.91601.9216-.51861.0048-.92472-.4034-.92228-.9268.00243-.5127.41272-.9212.92088-.9167.51408.0049.91776.41.91776.9216l-.00035.0003ZM8.23972 33.9888c-.0094.4768-.43153.9017-.9679.861-.55762-.0425-.91218-.4695-.86342-1.0163.04284-.4788.49423-.8638.95989-.8189.54125.0526.91497.4702.87143.9738v.0004ZM3.66102 29.714h-.65235v-.4295h1.77316v.4291h-.64574v1.8759h-.47542v-1.8752l.00035-.0003ZM9.81496 27.9084c.12121.0693.24414.1396.36674.2095-.1553.331-.56561.5183-.96023.4445-.41273-.0773-.71156-.4243-.73037-.8485-.01985-.45.22848-.8168.6332-.9355.42213-.1239.84112.0324 1.0588.4089-.1236.0728-.24763.1459-.36988.2179-.25704-.261-.54264-.2937-.74291-.0912-.17902.181-.17937.505-.0007.6853.19749.199.49981.1649.7457-.0905l-.00035-.0004ZM11.9392 24.1484c0 .2603-.0018.5028.0007.7451.001.0912.0501.1454.1441.1521.0774.0055.1547.0097.2393.0149v.3943c-.148.0258-.2981.0289-.4465-.0021-.2427-.0504-.3737-.2091-.381-.4726-.0073-.2686-.0018-.5377-.0018-.8105-.102-.0341-.1985-.0049-.3009-.0244v-.4298h.2957v-.3505c.1501-.0448.2898-.0866.4465-.1336v.481h.3849v.4361h-.3814.0004ZM5.39587 28.5199v-2.4024h.43572v2.4024h-.43572ZM8.57605 33.0651h.43328v.2715c.13618-.2068.29988-.3059.52592-.3021v.4879c-.04214.0021-.08011.0028-.11772.0059-.23789.0185-.39497.1744-.40019.4138-.00627.2823-.0014.5645-.0014.8555h-.43989v-1.7325ZM6.22453 25.458h-.41447v-1.7346h.4082v.2837c.12329-.2182.28142-.3129.50084-.3209v.4813c-.01462.0181-.03691.0132-.05816.0143-.27585.0125-.42457.1552-.43363.4319-.00766.23-.00243.4601-.00278.6905V25.458Z" fill="#FEFEFE"/><path d="M11.6498 34.4868c.0021-.2227.1769-.3912.4023-.3874.2183.0039.3845.1744.3827.3933-.0014.2203-.1832.3961-.4026.3901-.2173-.0062-.3845-.1788-.3828-.396h.0004Z" fill="#FEF8F8"/><path d="M3.80174 27.2782v-.7434c.17867.0073.35491-.0227.52836.0205.16892.0425.25948.1869.25008.3773-.00836.1747-.12121.3076-.28874.3341-.05538.0087-.11215.0101-.16857.0108-.1031.0017-.20654.0003-.32148.0003l.00035.0004Z" fill="#ED2430"/><path d="M10.4023 24.5925c-.0007.2857-.1975.4851-.47929.4858-.28107.0007-.48064-.1987-.48412-.4838-.00349-.2857.2041-.4952.48865-.4931.27936.0024.47576.2053.47476.4911ZM7.15677 28.1486c-.27828-.0028-.47263-.2068-.47159-.4949.00105-.284.20306-.4911.47856-.49.27759.001.49075.223.48308.5032-.00766.2819-.2135.4841-.49005.4813v.0004ZM8.32297 24.4191h-.85471c.0303-.2095.17032-.3275.40263-.341.22674-.0136.39287.1075.45208.341Z" fill="#ED2330"/><path d="M10.926 27.4884c.0383-.2252.2069-.3568.4448-.3463.2316.0101.4061.1677.4044.3463h-.8492Z" fill="#ED2431"/><path d="M6.01552 30.7239c0 .2764-.19958.48-.4709.48-.27097 0-.47089-.2043-.47089-.481 0-.276.20201-.482.47159-.4817.26958.0007.47054.2068.4702.4824v.0003ZM7.79319 33.9275c.00244.2788-.19574.4852-.46741.4869-.27132.0018-.47542-.205-.47507-.4817.00035-.2711.19783-.4764.46323-.4809.27097-.0049.47681.1994.47925.4754v.0003Z" fill="#ED2330"/><path d="M11.7241 34.4864c.0062-.1942.1487-.3334.3305-.3236.1877.0101.3117.1517.3054.3483-.0055.1793-.1508.3084-.3375.2997-.1779-.0084-.3047-.1458-.2988-.3244h.0004Z" fill="#ED2431"/><path d="M12.2044 34.6678c-.13.041-.1098-.1198-.1961-.1337-.0366.0387 0 .0919-.0258.1323-.0812-.008-.0996-.1201-.0585-.3776.0895.0059.1905-.031.2542.0713.0415.0668-.0048.1128-.0567.1591.0268.0483.0536.0964.0829.1482v.0004Z" fill="#FEF8F9"/><path d="M12.0065 34.4652c-.0213-.0337-.0202-.0651-.0035-.0971.0306-.0129.0585-.0104.0905.0115.0189.0745-.0191.0929-.0867.0856h-.0003Z" fill="#EE2C38"/></g><defs><clipPath id="clip0_10806_5611"><path fill="#fff" d="M0 0h40v38H0z"/></clipPath></defs></svg>
