<svg viewBox="0 0 22 38" fill="none" xmlns="http://www.w3.org/2000/svg"><g clip-path="url(#clip0_10806_6242)"><path d="M0 0h22v38H0V0Z" fill="#000082"/><path d="M3.92952 30.0079c.1012 0 .14851-.0472.14851-.1318v-.0066c0-.0823-.04511-.1274-.15732-.1274H3.803v.2658h.12652Zm-.0055-.5019c.0979 0 .13641-.0329.13641-.1098v-.0066c0-.0758-.04071-.112-.13862-.112H3.803v.2295h.12102v-.0011Zm-.50825-.4887h.59295c.30913 0 .42794.1417.42794.3273v.0066c0 .1449-.07701.2361-.21782.269.14741.0264.25082.1176.25082.2922v.0066c0 .2218-.14191.3481-.46424.3481h-.58965v-1.2498ZM4.59949 29.0173h.89107v.3042h-.49504v.1768h.39273v.279h-.39273v.1867h.52255v.3053h-.91858v-1.252ZM5.63794 29.8684h.37733c.0066.0791.04511.1439.17492.1439.0924 0 .13861-.0417.13861-.1032 0-.067-.04401-.0879-.17932-.1066-.36083-.0406-.48404-.1449-.48404-.403 0-.2307.18922-.3987.50164-.3987.31023 0 .48405.1263.50495.3987H6.3035c-.0088-.0769-.05281-.1208-.13642-.1208-.0825 0-.12431.0362-.12431.0911 0 .0593.03631.0879.17492.1055.31573.0329.49064.1142.49064.392 0 .2329-.18261.4251-.51924.4251-.35313 0-.54235-.1428-.55115-.424ZM7.09124 29.3215h-.31573v-.3042H7.8085v.3042h-.31793v.9478h-.39933v-.9478ZM8.23975 29.651v-.0143c0-.3866.27832-.6392.64905-.6392.33883 0 .56655.1538.59625.4931h-.41033c-.0121-.1153-.07371-.1801-.18372-.1801-.14411 0-.23102.112-.23102.324v.0143c0 .2087.08471.324.23872.324.11221 0 .19252-.0582.20682-.1834h.39603c-.0209.3294-.26292.5019-.59405.5019-.45434.0011-.66775-.257-.66775-.6403ZM10.5136 29.6499v-.0143c0-.212-.1012-.3273-.2597-.3273-.154 0-.25408.1142-.25408.3273v.0143c0 .213.10008.3306.25738.3306.1563 0 .2564-.123.2564-.3306Zm-.92962.0011v-.0143c0-.3866.29483-.6392.66992-.6392.3862 0 .6733.2328.6733.6282v.0143c0 .3899-.2684.6513-.6799.6513-.41029.0011-.66332-.2603-.66332-.6403ZM11.0537 29.0173h.516l.2112.6073.2156-.6073h.506v1.252h-.3949v-.7391l-.286.7391h-.1331l-.2806-.7391v.7391h-.3542v-1.252ZM13.1142 29.595c.1056 0 .1595-.0473.1595-.1406v-.0066c0-.0966-.0539-.1351-.1573-.1351h-.0847v.2823h.0825Zm-.4786-.5777h.4995c.3608 0 .5159.1614.5159.4294v.0066c0 .2614-.1738.4075-.4983.4075h-.121v.4074h-.3961v-1.2509ZM14.0536 29.7916h.2476l-.1232-.4536-.1244.4536Zm-.1067-.7743h.5138l.3927 1.252h-.4213l-.0583-.2087h-.3961l-.0561.2087h-.3696l.3949-1.252ZM14.9899 29.0173h.4455l.3553.6622v-.6622h.3499v1.252h-.3807l-.4191-.749v.749h-.3509v-1.252ZM16.2781 29.0173h.4015v1.252h-.4015v-1.252ZM16.8182 29.0173h.8911v.3042h-.4939v.1768h.3927v.279h-.3927v.1867h.5225v.3053h-.9197v-1.252ZM17.8369 29.8684h.3773c.0066.0791.0451.1439.175.1439.0924 0 .1386-.0417.1386-.1032 0-.067-.044-.0879-.1793-.1066-.3609-.0406-.4841-.1449-.4841-.403 0-.2307.1892-.3987.5017-.3987.3102 0 .484.1263.5049.3987h-.3674c-.0088-.0769-.0528-.1208-.1364-.1208-.0825 0-.1244.0362-.1244.0911 0 .0593.0364.0879.175.1055.3157.0329.4906.1142.4906.392 0 .2329-.1826.4251-.5192.4251-.3543 0-.5435-.1428-.5523-.424ZM5.18914 31.7487h-.31573v-.3054H5.9053v.3054h-.31683v.9467h-.39933v-.9467ZM6.88551 32.076v-.0143c0-.212-.10121-.3273-.25962-.3273-.15401 0-.25412.1142-.25412.3273v.0143c0 .213.1001.3305.25742.3305.15731 0 .25632-.123.25632-.3305Zm-.92848.0011v-.0143c0-.3866.29483-.6392.66996-.6392.38613 0 .67326.2328.67326.6282v.0143c0 .3899-.26843.6512-.67986.6512-.41144.0011-.66336-.2602-.66336-.6402ZM7.69629 31.4433h.40153l.14302.748.15181-.748h.34543l.16941.7567.15292-.7567h.36853l-.29153 1.2521h-.40153l-.17492-.748-.17711.748h-.39714l-.29042-1.2521ZM10.3805 32.076v-.0143c0-.212-.1012-.3273-.2596-.3273-.15403 0-.25414.1142-.25414.3273v.0143c0 .213.10011.3305.25744.3305.1562 0 .2563-.123.2563-.3305Zm-.92957.0011v-.0143c0-.3866.29482-.6392.66997-.6392.3861 0 .6732.2328.6732.6282v.0143c0 .3899-.2684.6512-.6798.6512-.41035.0011-.66337-.2602-.66337-.6402ZM11.4179 32.0111c.11 0 .1628-.045.1628-.1361v-.0066c0-.0912-.0539-.1263-.1617-.1263h-.0946v.269h.0935Zm-.4885-.5678h.5116c.3454 0 .5247.1384.5247.4064v.0066c0 .1735-.088.2713-.2123.3273l.286.5107h-.4169l-.2332-.4295h-.0627v.4295h-.3961v-1.251h-.0011ZM12.1814 31.4433h.3982v.4745l.3466-.4745h.4125l-.44.5777.4642.6744h-.4576l-.3257-.5008v.5008h-.3982v-1.2521ZM13.8524 31.4433h.868v.3065h-.4708v.2328h.3795v.2921h-.3795v.4207h-.3972v-1.2521ZM15.7313 32.076v-.0143c0-.212-.1012-.3273-.2596-.3273-.154 0-.2541.1142-.2541.3273v.0143c0 .213.1001.3305.2574.3305.1562 0 .2563-.123.2563-.3305Zm-.9295.0011v-.0143c0-.3866.2948-.6392.6699-.6392.3861 0 .6733.2328.6733.6282v.0143c0 .3899-.2684.6512-.6799.6512-.4103.0011-.6633-.2602-.6633-.6402ZM16.7698 32.0111c.11 0 .1628-.045.1628-.1361v-.0066c0-.0912-.0539-.1263-.1617-.1263h-.0946v.269h.0935Zm-.4895-.5678h.5115c.3454 0 .5248.1384.5248.4064v.0066c0 .1735-.088.2713-.2124.3273l.2861.5107h-.417l-.2332-.4295h-.0627v.4295h-.396v-1.251h-.0011Z" fill="#61F5DE"/><path d="M5.28491 33.8694h.89108v.3053h-.49504v.1769h.39273v.2778h-.39273v.1878h.52254v.3042h-.91858v-1.252ZM6.3717 34.6053v-.7348h.39604v.7194c0 .1625.0352.2438.17711.2438.14081 0 .17492-.0802.17492-.2449v-.7183h.39933v.7315c0 .3767-.22442.5425-.57535.5425-.36523 0-.57205-.1823-.57205-.5392ZM8.23637 34.4372c.11001 0 .16281-.045.16281-.1362v-.0066c0-.0911-.0539-.1263-.16171-.1263h-.09461v.2691h.09351Zm-.48954-.5678h.51154c.34543 0 .52474.1384.52474.4064v.0066c0 .1735-.088.2712-.21231.3272l.28602.5107h-.41693l-.23322-.4294h-.06271v.4294h-.39603v-1.2509h-.0011ZM9.84584 34.502v-.0143c0-.2119-.10121-.3272-.25962-.3272-.15402 0-.25412.1142-.25412.3272v.0143c0 .2131.1001.3306.25742.3306.15621 0 .25632-.123.25632-.3306Zm-.92958.0011v-.0143c0-.3865.29483-.6391.66996-.6391.38613 0 .67328.2328.67328.6282v.0142c0 .3899-.26845.6513-.67988.6513-.41034.0011-.66336-.2603-.66336-.6403ZM10.9063 34.4471c.1056 0 .1595-.0472.1595-.1406v-.0066c0-.0966-.0539-.135-.1573-.135h-.0847v.2822h.0825Zm-.4786-.5777h.4995c.3608 0 .5159.1615.5159.4294v.0066c0 .2614-.1738.4075-.4983.4075h-.121v.4074h-.3961v-1.2509ZM11.5994 33.8694h.8899v.3053h-.4939v.1769h.3927v.2778h-.3927v.1878h.5225v.3042h-.9185v-1.252ZM12.9349 35.0863l.4984-.5239c.1144-.1208.1804-.235.1804-.3624 0-.1406-.0825-.224-.2244-.224-.1452 0-.2398.0823-.2651.2778h-.142c.0198-.2449.1684-.4008.4071-.4008.231 0 .3784.1361.3784.3514 0 .1538-.0979.3042-.253.4547l-.3454.336h.605v.1242h-.8405v-.033h.0011ZM14.8073 34.5262v-.0703c0-.291-.1233-.4799-.3345-.4799-.2123 0-.3388.1746-.3388.4832v.0703c0 .3174.1331.481.3421.481.2189.0011.3312-.168.3312-.4843Zm-.8295.0055v-.0703c0-.369.1881-.6074.4939-.6074.3092 0 .4896.2472.4896.6041v.0703c0 .3646-.1771.6095-.4863.6095-.2981-.0011-.4972-.2427-.4972-.6062ZM15.1053 35.0863l.4984-.5239c.1144-.1208.1804-.235.1804-.3624 0-.1406-.0825-.224-.2244-.224-.1452 0-.2398.0823-.2651.2778h-.1419c.0198-.2449.1683-.4008.407-.4008.231 0 .3784.1361.3784.3514 0 .1538-.0979.3042-.253.4547l-.3454.336h.605v.1242h-.8405v-.033h.0011ZM16.6874 34.7348v-.749l-.4346.749h.4346Zm0 .1242h-.6282v-.0495l.5732-.9401h.2035v.8644h.1738v.1241h-.1738v.2624h-.1485v-.2613Z" fill="#fff"/><path d="M2.36523 30.735H19.8721v.0725H2.36523v-.0725Z" fill="#61F5DE"/><path d="M2.35316 35.7178H19.8975v-.0736H2.35316v.0736Zm0-2.4645H19.8975v-.0736H2.35316v.0736Zm-.0066-2.4634H19.8909v-.0736H2.34656v.0736Z" stroke="#61F5DE" stroke-width=".10459"/><path d="M15.7698 3.68578v1.97468l-.6215-1.97468h-.615v3.62208h.615v-1.7748l.5555 1.7748h.681V3.68578h-.615ZM3.75903 3.68578v3.62208h.61496V5.75491h.56984v-.61283h-.56984v-.84237h.88337v-.61393H3.75903ZM11.7402 3.68578h-1.703v.61393h.5435v3.00815h.6149V4.29971h.5446v-.61393ZM16.9866 3.68578v3.62208h1.4983v-.61393h-.8845v-.93902h.5699v-.61283h-.5699v-.84237h.8845v-.61393h-1.4983ZM9.75567 7.30786h-.63585l-.45434-1.71989s.39053-.07029.39053-.48543v-.56561c0-.13069-.10671-.23722-.23762-.23722h-.23652v3.00815h-.61495V3.68578h.85037c.45874 0 .83057.36133.85037.81381h.0022v.59197c0 .35693-.11661.61502-.33112.77976l.41693 1.43654ZM13.3375 3.68578v2.82144c0 .13179-.1067.23832-.2387.23832s-.2387-.10653-.2387-.23832V3.68578h-.615v2.82144c0 .47006.3817.85116.8526.85116.4708 0 .8526-.3811.8526-.85116V3.68578h-.6128ZM6.26949 6.50722V4.48641c0-.13179.10671-.23832.23872-.23832h.0011c.13092 0 .23762.10653.23762.23722v2.02191c0 .13179-.1067.23832-.23872.23832-.13201 0-.23872-.10653-.23872-.23832Zm-.61495-2.02081v2.02081c0 .47006.38173.85115.85257.85115.47084 0 .85258-.38109.85258-.85115V4.48641c0-.47006-.38174-.85116-.85258-.85116-.46974 0-.85257.3811-.85257.85116Z" fill="#61F5DE"/><path d="M19.915 8.72901V2.26462H2.32886v6.46439h8.04384l.186-.57H2.89761V2.83572H19.3462v5.32329h-7.65l.1848.57h8.034ZM17.6818 31.7487h.0638v-.212l.0858.212h.0231l.0858-.212v.212h.0715v-.3042h-.0924l-.0726.1878-.0737-.1878h-.0913v.3042Zm-.2068 0h.0715v-.2471h.0869v-.0571h-.2464v.0571h.0869v.2471h.0011ZM11.122 19.1087c-2.4048 0-4.36077-1.9527-4.36077-4.3524 0-2.4008 1.95597-4.3535 4.36077-4.3535s4.3597 1.9527 4.3597 4.3535c.0011 2.3997-1.9549 4.3524-4.3597 4.3524Zm0-8.2249c-2.13858 0-3.87893 1.7364-3.87893 3.8725 0 2.135 1.74035 3.8714 3.87893 3.8714 2.1386 0 3.8778-1.7364 3.8778-3.8714 0-2.1361-1.7392-3.8725-3.8778-3.8725Z" fill="#61F5DE"/><path d="m13.3398 23.2668-2.2288-2.0285-2.2288 2.0285v-7.7845h4.4576v7.7845Z" fill="#000082"/><path d="m13.5807 23.8115-2.4698-2.2471-2.46966 2.2482v-8.5709h4.93946v8.5698Zm-4.45762-8.0887v6.9992l1.98782-1.8099 1.9879 1.8099v-6.9992H9.12308Z" fill="#61F5DE"/><path d="m11.1219 8.60052 1.3839 4.25358h4.4796l-3.6237 2.6282 1.3839 4.2524-3.6237-2.6281-3.62369 2.6281 1.38392-4.2524-3.62371-2.6282h4.47959l1.38389-4.25358Z" fill="#000082"/><path d="M10.87 17.3691h.4818v3.8692H10.87v-3.8692Z" fill="#61F5DE"/><path d="m12.1472 13.7569-.3905-.2834.5545-.7611.3894.2823-.5534.7622ZM10.0978 13.7569l-.55447-.7622.38944-.2823.55443.7611-.3894.2834ZM10.881 16.2346h.4818v.872h-.4818v-.872ZM13.2638 15.7107l-.8328-.2735.1507-.4569.8328.2735-.1507.4569ZM8.98006 15.7107l-.15071-.4569.83387-.2735.14961.4569-.83277.2735Z" fill="#fff"/><path d="m15.2044 20.3651-4.0825-2.9609-4.08132 2.9609 1.55884-4.7906-4.08245-2.9609H9.5631l1.5588-4.79175 1.5589 4.79065h5.0461l-4.0825 2.9609 1.56 4.7917Zm-9.20451-7.2705L9.16486 15.39l-1.209 3.7154 3.16494-2.2964 3.165 2.2964-1.209-3.7154 3.165-2.2954h-3.912l-1.2079-3.71541-1.20897 3.71431H5.99989v.0011Z" fill="#fff"/><path d="M3.42352 28.3616h1.99447V22.778H3.69745L2 23.9652v1.5156l1.42352-.9917v3.8725Zm5.72709.1021c2.22219 0 3.41139-1.062 3.41139-2.749v-.3668c0-1.6562-1.2904-2.6479-3.38719-2.6479-2.09678 0-3.38719.9764-3.38719 2.6864v.3745c-.0011 1.6331 1.1408 2.7028 3.36299 2.7028Zm.05391-1.3278c-.96259 0-1.41582-.469-1.41582-1.3827v-.3745c0-.9138.44553-1.3904 1.39271-1.3904.93839 0 1.39269.4843 1.39269 1.3904v.3822c0 .8907-.3993 1.375-1.36958 1.375Zm6.97018 1.3278c2.2222 0 3.4114-1.062 3.4114-2.749v-.3668c0-1.6562-1.2904-2.6479-3.3872-2.6479s-3.3872.9764-3.3872 2.6864v.3745c0 1.6331 1.1419 2.7028 3.363 2.7028Zm.055-1.3278c-.9626 0-1.4158-.469-1.4158-1.3827v-.3745c0-.9138.4455-1.3904 1.3927-1.3904.9384 0 1.3927.4843 1.3927 1.3904v.3822c0 .8907-.3993 1.375-1.3696 1.375Z" fill="#61F5DE"/></g><defs><clipPath id="clip0_10806_6242"><path fill="#fff" d="M0 0h22v38H0z"/></clipPath></defs></svg>
