<svg viewBox="0 0 154 26" fill="none" xmlns="http://www.w3.org/2000/svg">
<path d="M90.5802 12.0431H88.3389C87.3494 10.0256 86.3631 8.07359 85.3737 6.05603C85.3073 6.44642 85.3073 6.83682 85.3073 7.22721V11.9775C85.0449 12.0431 83.5939 12.1087 82.9364 12.0431C82.87 11.9775 82.87 11.9119 82.87 11.8464V0.849732C83.0028 0.784146 83.0692 0.784146 83.1988 0.784146H84.7794C85.0418 0.784146 85.1745 0.849732 85.2409 1.10895C86.0312 2.67053 86.7551 4.23211 87.5454 5.79368C87.6782 6.05291 87.8078 6.38084 87.9406 6.64006C87.9406 6.70565 88.007 6.77123 88.0734 6.83682C88.1397 6.70564 88.1397 6.5776 88.1397 6.51201V1.30571C88.1397 1.17454 88.1397 1.04649 88.2061 0.915319C88.4685 0.849732 90.2483 0.849732 90.577 0.915319C90.6434 0.980905 90.6434 1.04649 90.6434 1.11208C90.6434 1.82728 90.6434 11.7214 90.577 12.0462L90.5802 12.0431Z" fill="#667085"/>
<path d="M12.7796 12.0431H10.5383C9.5488 10.0256 8.5625 8.008 7.57304 5.99044C7.44027 6.1872 7.50665 6.38084 7.50665 6.5776V11.9807C7.17789 12.0462 5.39812 12.0462 5.13574 11.9807C5.06936 11.7214 5.06936 0.980905 5.13574 0.721683C5.20213 0.656097 5.3349 0.656097 5.46451 0.656097H7.04511C7.3075 0.656097 7.44027 0.721683 7.57304 0.980905C8.36334 2.54248 9.08726 4.10406 9.87756 5.66563C10.0103 5.92486 10.1399 6.25279 10.3391 6.51201C10.3391 6.5776 10.3391 6.64318 10.4719 6.64318V0.784146C10.7343 0.652974 10.9998 0.71856 11.2622 0.71856H12.7764C12.8428 0.784146 12.8428 0.915319 12.8428 0.977782C12.9092 2.60494 12.8428 11.6527 12.7764 12.0431H12.7796Z" fill="#667085"/>
<path d="M57.5771 0.71856C57.6435 0.652974 57.7099 0.652974 57.7763 0.652974H61.399C61.927 0.652974 62.3885 0.784146 62.9133 0.977782C64.0323 1.43376 64.6266 2.21455 64.8226 3.38573C64.889 4.03535 64.889 4.6225 64.7562 5.27212C64.6235 6.05291 64.2283 6.70252 63.5044 7.1585C63.438 7.1585 63.438 7.22409 63.3716 7.28967C63.3716 7.42085 63.438 7.5489 63.5044 7.68007C64.0987 8.98242 64.6899 10.3472 65.2842 11.6496C65.3505 11.7808 65.4169 11.8464 65.4169 11.9744H62.8469C62.2526 10.6065 61.595 9.24165 61.0039 7.8737H60.0144C59.948 8.2641 60.0144 8.58891 60.0144 8.91371V11.9088C59.6857 12.04 58.105 12.04 57.5771 11.9744C57.5107 11.9088 57.5107 11.8432 57.5107 11.7776V1.10895C57.5107 1.04337 57.4444 0.849732 57.5771 0.71856ZM59.948 5.66563C60.476 5.66563 60.9375 5.73122 61.3959 5.60005C61.5286 5.60005 61.595 5.53446 61.7246 5.46888C62.1198 5.27212 62.3189 5.0129 62.3822 4.55692V3.9073C62.3158 3.45132 62.0534 3.12651 61.6582 2.92975C61.4591 2.99534 61.3295 2.92975 61.1967 2.92975C60.868 2.86417 60.4728 2.86417 60.144 2.86417C60.0776 2.86417 60.0113 2.86417 59.9449 2.92975V5.66251L59.948 5.66563Z" fill="#667085"/>
<path d="M56.0629 6.38084V7.94241C56.0629 8.52957 55.9965 9.1136 55.7341 9.70075C55.1398 11.1312 54.0871 11.9775 52.5065 12.1743C51.9122 12.2399 51.2547 12.2399 50.6635 12.0431C49.2157 11.6527 48.359 10.7408 47.8975 9.37594C47.7647 8.91996 47.6983 8.52957 47.6983 8.07359V4.62562C47.6983 4.10406 47.7647 3.52003 48.0271 2.99846C48.555 1.63052 49.6077 0.784146 51.1219 0.590511C51.7795 0.459338 52.5065 0.524924 53.1641 0.656097C54.5487 1.04649 55.4054 1.95845 55.8637 3.32327C55.9965 3.77925 56.0629 4.23523 56.0629 4.75367C56.0629 5.34083 56.0629 5.85927 56.0629 6.38084ZM50.1988 6.38084V8.07359C50.1988 8.46398 50.2652 8.85437 50.4612 9.17918C50.7236 9.76634 51.1852 10.0256 51.8458 10.0256C52.5065 10.0256 52.9649 9.70075 53.2305 9.17918C53.2968 9.04801 53.3632 8.91996 53.3632 8.78879C53.4296 8.46398 53.496 8.20164 53.496 7.87683V4.81926C53.496 4.36328 53.4296 3.9073 53.1672 3.51691C52.9681 3.1921 52.7057 2.92975 52.3105 2.8017C51.653 2.60494 50.7963 2.73612 50.4012 3.64808C50.2684 3.97289 50.1388 4.36328 50.1388 4.68809C50.2052 5.27524 50.2052 5.79368 50.2052 6.38084H50.1988Z" fill="#667085"/>
<path d="M129.251 8.07359C129.185 8.39839 129.251 8.7232 129.251 9.05113V12.1087C128.989 12.1743 128.723 12.1743 128.461 12.1743H126.88C126.814 12.0431 126.814 11.9151 126.814 11.8495V0.980905C126.947 0.915319 127.013 0.915319 127.143 0.915319H130.437C131.031 0.915319 131.556 0.980905 132.084 1.17454C133.336 1.63052 134.126 2.4769 134.259 3.84171C134.325 4.49133 134.325 5.07848 134.192 5.7281C133.993 6.64006 133.468 7.28967 132.612 7.74566C132.017 8.07046 131.426 8.13605 130.769 8.20164H129.583C129.517 8.00488 129.384 8.00488 129.255 8.07046L129.251 8.07359ZM129.251 5.79681H130.503C130.702 5.79681 130.898 5.73122 131.097 5.66563C131.559 5.46888 131.755 5.14407 131.821 4.68809V4.03847C131.755 3.58249 131.559 3.25768 131.097 3.06093C130.898 2.99534 130.636 2.92975 130.44 2.92975H129.517C129.45 2.92975 129.384 2.92975 129.318 2.99534C129.185 3.32015 129.251 5.53446 129.251 5.79368V5.79681Z" fill="#667085"/>
<path d="M98.4864 8.07359V12.0431C98.224 12.1087 96.5106 12.1087 96.1819 12.0431C96.1155 11.9775 96.1155 11.9119 96.1155 11.8464V0.784146C96.1819 0.71856 96.2483 0.71856 96.3146 0.71856H99.871C100.595 0.71856 101.256 0.849732 101.847 1.17454C102.836 1.69611 103.361 2.4769 103.494 3.51691C103.56 4.16652 103.56 4.81926 103.427 5.46888C103.228 6.44642 102.703 7.09604 101.78 7.55202C101.186 7.81124 100.595 7.94241 99.9374 8.008H98.7519C98.7519 8.008 98.6192 8.008 98.4896 8.07359H98.4864ZM98.5528 5.79681H99.9374C100.07 5.79681 100.266 5.73122 100.399 5.66563C100.86 5.46888 101.123 5.14407 101.123 4.68809V4.10093C101.056 3.64495 100.86 3.25456 100.399 3.12339C100.2 3.0578 100.004 2.99222 99.7414 2.99222H98.7519C98.6856 2.99222 98.6192 2.99222 98.5528 3.0578C98.4864 3.31702 98.4864 5.46575 98.5528 5.79056V5.79681Z" fill="#667085"/>
<path d="M13.769 0.784146C13.9018 0.71856 13.9682 0.71856 14.0978 0.71856H16.0072C16.1821 0.71856 16.3138 0.826829 16.4023 1.04337C16.9302 3.06093 17.455 5.0129 17.9829 7.03045C18.1157 7.42085 18.1821 7.87683 18.3117 8.33281C18.3781 8.26722 18.4445 8.13605 18.4445 8.07359C19.0388 5.79681 19.6299 3.45132 20.2874 1.17454C20.2874 1.04337 20.3538 0.977782 20.4202 0.849732C20.6826 0.784146 22.5287 0.784146 22.8575 0.849732C22.8575 0.980905 22.8575 1.04649 22.7911 1.17454C22.1968 3.32327 21.6057 5.46888 20.9481 7.61761C20.553 8.98555 20.1578 10.3504 19.8291 11.7183C19.7627 11.8495 19.7627 11.9775 19.6963 12.1087H17.0598C16.7975 11.1967 16.5319 10.2223 16.2695 9.31036C16.0072 8.39839 15.7416 7.42397 15.4792 6.51201C15.2169 5.60005 14.9513 4.62563 14.6889 3.71366C14.2938 2.67365 14.0314 1.69611 13.7659 0.784146H13.769Z" fill="#667085"/>
<path d="M110.872 0.784146C110.938 1.04337 110.938 1.24013 110.938 1.49935V2.92975C110.543 2.99534 110.148 2.92975 109.753 2.92975H107.382C107.316 3.18897 107.316 4.68809 107.316 5.14407C107.382 5.20965 107.515 5.20965 107.644 5.20965H110.344C110.477 5.20965 110.606 5.20965 110.739 5.27524C110.806 5.92486 110.739 6.64318 110.739 7.35838C110.606 7.42397 110.477 7.42397 110.344 7.42397H107.313C107.246 7.68319 107.246 9.5727 107.313 9.83192C107.575 9.89751 107.907 9.83192 108.236 9.83192H110.935V11.9151C110.802 12.0462 110.736 11.9807 110.606 11.9807H105.204C105.071 11.9807 104.942 11.9807 104.809 11.9151C104.809 11.7839 104.809 1.11208 104.875 0.784146H110.872Z" fill="#667085"/>
<path d="M145.061 2.99846C144.994 3.32327 144.994 4.95043 145.061 5.21278C145.193 5.27836 145.26 5.27836 145.389 5.27836H148.089C148.222 5.27836 148.351 5.27836 148.418 5.34395C148.484 5.60317 148.484 7.10229 148.418 7.42709C148.155 7.49268 147.89 7.42709 147.561 7.42709H145.057C144.991 7.68632 144.991 7.94866 144.991 8.20788V9.90063C145.386 9.96622 145.848 9.90063 146.243 9.90063H148.614C148.747 10.1599 148.68 10.3566 148.68 10.6158V11.9838C148.614 12.1149 148.481 12.0494 148.418 12.0494H142.686C142.62 11.9838 142.62 11.9182 142.62 11.8526V0.784146C142.882 0.71856 148.285 0.71856 148.614 0.784146C148.68 0.980905 148.68 2.41131 148.614 2.86729C148.481 2.93288 148.415 2.93288 148.285 2.93288H145.386C145.32 2.99846 145.187 2.99846 145.057 2.99846H145.061Z" fill="#667085"/>
<path d="M26.1547 9.83192H29.7774C29.8438 10.2223 29.7774 10.5471 29.7774 10.9375V11.9775C29.515 12.0431 24.1125 12.0431 23.7174 11.9775C23.651 11.9119 23.651 11.8464 23.651 11.7808V0.71856C23.7837 0.652974 23.9134 0.652974 24.0461 0.652974H29.3823C29.515 0.652974 29.5814 0.652974 29.711 0.71856C29.7774 0.977782 29.7774 2.41131 29.711 2.8017C29.5783 2.86729 29.4486 2.86729 29.3159 2.86729H26.417C26.2843 2.86729 26.1547 2.86729 26.0219 2.93288V5.14719C26.1547 5.21278 26.2843 5.21278 26.417 5.21278H29.4486C29.515 5.472 29.515 7.09916 29.4486 7.36151C28.3296 7.42709 27.2073 7.36151 26.0883 7.36151C26.0219 7.62073 26.0883 7.88307 26.0883 8.20788V9.05426C26.1547 9.31348 26.1547 9.57582 26.1547 9.83504V9.83192Z" fill="#667085"/>
<path d="M37.6172 1.17454C37.5508 1.95533 37.4844 2.67053 37.3548 3.45132C37.2221 3.45132 37.1557 3.38573 37.0261 3.32015C36.3685 2.99534 35.7078 2.86417 35.0503 2.79858C34.8512 2.79858 34.6552 2.79858 34.5224 2.86417C34.0609 2.99534 33.7985 3.32015 33.7321 3.77613C33.6657 4.16652 33.7985 4.55692 34.1936 4.81614C34.3264 4.94731 34.5224 5.0129 34.6552 5.07536C35.0503 5.20653 35.3791 5.33458 35.7742 5.46575C36.2358 5.66251 36.6309 5.85615 37.0261 6.11537C37.75 6.57135 38.0788 7.22096 38.1451 8.00175C38.2115 8.52332 38.2115 9.04176 38.0788 9.56333C37.8164 10.7345 37.0893 11.5153 36.0366 11.9057C35.4423 12.1025 34.8512 12.2305 34.2568 12.2305C33.2674 12.2305 32.3475 12.0337 31.4908 11.6434C31.358 11.5778 31.2284 11.5778 31.162 11.4466C31.2284 10.6658 31.2948 9.88502 31.4244 9.10423C31.6236 9.10423 31.6868 9.2354 31.8196 9.2354C32.3475 9.56021 32.9386 9.75697 33.5329 9.88502C33.8617 9.9506 34.2568 9.9506 34.5856 9.88502C34.7184 9.88502 34.848 9.81943 34.9808 9.81943C35.6383 9.56021 35.9702 8.84188 35.6383 8.25785C35.5719 8.06109 35.3759 7.93304 35.2431 7.80187C34.9808 7.60511 34.6488 7.54265 34.3201 7.41148C33.8585 7.21472 33.397 7.08667 32.9355 6.82433C32.8027 6.75874 32.6731 6.69315 32.6067 6.62757C31.8828 6.17159 31.4212 5.52197 31.2885 4.6756C31.1557 4.08844 31.2221 3.50441 31.3549 2.91726C31.6836 1.6149 32.6067 0.834117 33.9249 0.574895C35.1768 0.378136 36.3622 0.574895 37.4813 1.09646C37.5255 1.09646 37.5698 1.11832 37.6141 1.16205L37.6172 1.17454Z" fill="#667085"/>
<path d="M66.2736 11.3935C66.34 10.6127 66.4064 9.83192 66.536 9.05113C66.7352 9.05113 66.7984 9.18231 66.8648 9.18231C67.3927 9.50711 67.9838 9.70387 68.5781 9.83192C68.9069 9.89751 69.3021 9.89751 69.6308 9.89751C69.7636 9.89751 69.8932 9.83192 70.026 9.83192C70.6835 9.5727 71.0154 8.85437 70.6835 8.27035C70.6171 8.07359 70.4211 7.94554 70.2884 7.81437C70.026 7.61761 69.6941 7.55514 69.3653 7.42397C68.9038 7.22721 68.4422 7.09916 67.9807 6.83682C67.7815 6.70565 67.5191 6.5776 67.3231 6.44642C66.7288 5.99044 66.4665 5.40641 66.3337 4.75367C66.2009 4.16652 66.2673 3.58249 66.4001 2.99534C66.7288 1.75857 67.5191 1.04337 68.7046 0.71856C69.8237 0.393752 71.537 0.652974 72.5929 1.17454C72.5265 1.88974 72.4601 2.67053 72.3305 3.45132C72.1977 3.45132 72.1314 3.38573 72.0017 3.32015C71.3442 2.99534 70.6835 2.79858 70.026 2.79858C69.8268 2.79858 69.6308 2.79858 69.4981 2.86417C69.0365 2.99534 68.8405 3.32015 68.7078 3.77613C68.6414 4.23211 68.7741 4.55692 69.1029 4.81614C69.2357 4.94731 69.4317 5.0129 69.5644 5.07536C69.9596 5.20653 70.2884 5.33458 70.6835 5.46575C71.1451 5.66251 71.5402 5.85615 72.0017 6.11537C72.7257 6.57135 73.0544 7.22097 73.1208 8.00175C73.1872 8.52332 73.1872 9.04176 73.0544 9.56333C72.792 10.7345 72.1314 11.5153 71.0123 11.9057C70.418 12.1649 69.8268 12.2305 69.2325 12.2305C68.2431 12.2305 67.3232 12.0337 66.4665 11.6434C66.4665 11.5778 66.3337 11.5122 66.2673 11.3841L66.2736 11.3935Z" fill="#667085"/>
<path d="M41.7679 11.9807V2.93288C41.4391 2.86729 41.1736 2.93288 40.8448 2.93288H39.0651C38.9987 2.67365 38.9987 1.24013 39.0651 0.849732C39.1314 0.784146 39.1978 0.784146 39.2642 0.784146H46.9049C46.9712 0.980905 46.9049 1.24013 46.9713 1.49935V2.92975C46.8385 2.99534 46.7089 2.99534 46.5761 2.99534H44.3348C44.2684 3.06093 44.2684 3.12651 44.2684 3.1921V11.9775C43.9396 12.0431 42.2927 12.0431 41.7647 11.9775L41.7679 11.9807Z" fill="#667085"/>
<path d="M8.43289 16.4062H10.1463C10.0135 16.9933 9.8175 17.5118 9.68473 18.0989C9.55196 18.6861 9.35596 19.2045 9.22319 19.7917C9.09042 20.3788 8.89443 20.8973 8.76165 21.4844C8.62888 22.0716 8.43289 22.59 8.30012 23.1772H6.58674C6.45397 23.046 6.45397 22.9179 6.45397 22.7868C6.05882 21.55 5.73005 20.2476 5.3349 19.0109C5.3349 18.8797 5.26851 18.8141 5.20213 18.6861C5.06936 18.7516 5.06936 18.8828 5.06936 19.0109C4.6742 20.2476 4.34544 21.55 3.95029 22.7868C3.8839 22.9179 3.8839 23.046 3.81751 23.1116C3.75113 23.1772 3.68474 23.1116 3.55513 23.1116H2.17052C2.03775 22.8523 0.261149 16.7341 0.194763 16.4093C0.39392 16.3437 1.51299 16.3437 1.90814 16.4093C2.23691 17.1901 2.36968 17.9053 2.56567 18.6236C2.76167 19.3419 2.89444 20.054 3.0936 20.8379C3.22637 20.5131 3.35598 20.1227 3.42236 19.7979C3.55513 19.4075 3.62152 19.0827 3.75113 18.6923C3.81751 18.3019 3.95029 17.9771 4.01351 17.5867C4.07673 17.1963 4.21267 16.8715 4.27589 16.4811C4.53827 16.4155 5.52773 16.4155 5.98927 16.4811C6.05565 16.5467 6.05565 16.6779 6.12204 16.8059C6.45081 18.0427 6.77957 19.345 7.17472 20.5818C7.17472 20.713 7.17472 20.7786 7.3075 20.9066C7.70265 19.4106 8.03141 17.9115 8.42657 16.4155L8.43289 16.4062Z" fill="#667085"/>
<path d="M138.014 9.89751C138.409 9.96309 138.805 9.89751 139.2 9.89751H141.504V11.9807C141.438 12.1118 141.305 12.0462 141.242 12.0462H135.71C135.71 12.0462 135.643 12.0462 135.643 11.9807V0.784146C135.842 0.71856 137.423 0.71856 138.014 0.71856C138.081 0.784146 138.081 0.849732 138.081 0.915319V9.31036C137.948 9.63516 137.948 9.76634 138.014 9.89751Z" fill="#667085"/>
<path d="M81.0966 12.0431H78.792C78.7256 11.9775 78.7256 11.8464 78.7256 11.7839C78.6593 9.37594 78.7256 1.10895 78.792 0.784146C79.0544 0.71856 79.32 0.784146 79.5823 0.71856H81.0966L81.1629 0.784146V11.9151C81.1629 11.9588 81.1408 12.0025 81.0966 12.0462V12.0431Z" fill="#667085"/>
<path d="M1.05461 0.71856H3.35914C3.49191 0.849732 3.42552 0.915319 3.42552 1.04337V11.9119C3.16314 12.0431 1.58254 12.0431 1.05461 11.9775C0.988228 11.9119 0.988228 11.8464 0.988228 11.7808V1.17454C0.988228 1.04337 0.988228 0.849732 1.05461 0.71856Z" fill="#667085"/>
<path d="M80.3063 22.7836V25.4508C80.0439 25.5164 79.0544 25.5164 78.792 25.4508C78.7256 25.1916 78.7256 18.811 78.792 18.4862C78.9912 18.4206 79.9111 18.4206 80.2399 18.4862C80.3063 18.6174 80.2399 18.811 80.3063 18.9422C80.3726 18.9422 80.439 18.8766 80.5054 18.811C81.3621 18.0302 82.7467 18.1614 83.4706 19.0077C83.9986 19.5949 84.1945 20.3101 84.1282 21.0909C84.0618 21.5469 83.929 22.0029 83.6666 22.3932C83.1387 23.174 82.2188 23.5644 81.2293 23.3052C80.9006 23.174 80.635 22.9804 80.3063 22.7836ZM82.5444 20.7661V20.5693C82.4116 19.7229 81.5549 19.267 80.831 19.7229C80.0407 20.2445 80.0407 21.3501 80.831 21.8717C81.3589 22.1965 82.0829 22.0028 82.3452 21.4813C82.478 21.2845 82.5444 21.0253 82.5444 20.7661Z" fill="#667085"/>
<path d="M62.0566 25.4508C61.7942 25.5164 60.8047 25.5164 60.5423 25.4508C60.476 25.1916 60.476 18.7485 60.5423 18.4862C60.8047 18.4206 61.7278 18.4206 61.9902 18.4862C62.0566 18.6174 61.9902 18.811 62.0566 18.9422C62.1229 19.0077 62.1893 18.9422 62.1893 18.8766C63.046 18.0302 64.6266 18.1614 65.4169 19.267C66.0745 20.1789 66.0745 21.6093 65.4169 22.4557C64.7594 23.3677 63.7036 23.4957 62.8469 23.2365C62.7141 23.1709 62.5845 23.1053 62.5181 23.0397C62.3853 22.9742 62.3189 22.9086 62.1893 22.7805C62.123 22.8461 62.1229 22.9117 62.1229 23.0397V25.1229C62.0566 25.2541 62.0566 25.3196 62.0566 25.4477V25.4508ZM64.2979 20.7661V20.5693C64.1651 19.7229 63.3084 19.267 62.5845 19.7229C61.7942 20.2445 61.7942 21.3501 62.5845 21.8717C63.1124 22.1965 63.8363 22.0028 64.0987 21.4813C64.2315 21.2845 64.2979 21.0253 64.2979 20.7661Z" fill="#667085"/>
<path d="M77.7362 20.8317C77.8026 22.1996 76.7467 23.2396 75.4317 23.3708C74.9701 23.4364 74.575 23.3708 74.1798 23.2396C72.9944 22.9148 72.3368 21.8717 72.4001 20.6349C72.4664 19.3981 73.3231 18.4206 74.8374 18.2925C75.1661 18.2925 75.4949 18.2925 75.8268 18.3581C77.0787 18.6829 77.7362 19.7261 77.7362 20.8317ZM75.0333 22.0029C75.4285 22.0029 75.7573 21.8717 75.9564 21.5469C76.2852 21.0909 76.2852 20.5693 75.9564 20.1165C75.7573 19.7261 75.3621 19.5949 74.9037 19.5949C74.4454 19.5949 74.1798 19.8541 73.9807 20.2445C73.7815 20.6349 73.8479 21.0909 74.0471 21.4813C74.3094 21.8717 74.6414 22.0029 75.0365 22.0029H75.0333Z" fill="#667085"/>
<path d="M24.6373 23.174C24.5709 23.0429 24.5709 22.9148 24.5709 22.8492V20.7005C24.5709 20.5037 24.5709 20.3101 24.5045 20.1789C24.4381 19.9197 24.3053 19.7229 23.9766 19.6574C23.6478 19.5918 23.3823 19.6574 23.1863 19.9166C23.0535 20.1133 22.9871 20.307 22.9871 20.5662V23.1709C22.7247 23.2365 21.8017 23.2365 21.4729 23.1709C21.4065 23.1053 21.4065 23.0397 21.4065 22.9742V18.4831C21.4729 18.4175 21.5393 18.4175 21.6057 18.4175H22.9239C23.0567 18.6142 22.9239 18.7423 22.9903 18.939C23.0567 18.939 23.1231 18.8735 23.1231 18.8735C23.651 18.3519 24.3085 18.2238 25.0324 18.4175C25.494 18.5486 25.8227 18.8735 26.0219 19.3294C26.1547 19.5887 26.1547 19.851 26.1547 20.1102V23.1678C25.9555 23.2334 24.9692 23.2334 24.6404 23.1678L24.6373 23.174Z" fill="#667085"/>
<path d="M53.6888 23.174C53.4265 23.2396 52.437 23.2396 52.1746 23.174C52.1082 22.9148 52.1082 18.8141 52.1746 18.4893C52.3738 18.4237 53.1641 18.4237 53.6224 18.4893C53.7552 18.6205 53.6224 18.8141 53.6888 19.0109C53.7552 19.0765 53.8216 18.9453 53.8216 18.9453C54.3495 18.3581 55.0071 18.2301 55.731 18.4893C56.3885 18.6861 56.7204 19.2045 56.7837 19.8572C56.85 20.054 56.85 20.2476 56.85 20.4444V22.9835C56.85 23.0491 56.85 23.1803 56.7837 23.2427C56.5213 23.3083 55.5982 23.3083 55.2694 23.2427C55.2031 23.1116 55.2031 23.046 55.2031 22.9179V20.7036C55.2031 20.5069 55.203 20.3788 55.1367 20.1821C55.0703 19.9228 54.9375 19.7261 54.6087 19.6605C54.28 19.5949 54.0144 19.7261 53.8184 19.9197C53.6193 20.1165 53.6193 20.3757 53.6193 20.7005V22.9773C53.6857 23.0429 53.7521 23.1084 53.6857 23.174H53.6888Z" fill="#667085"/>
<path d="M89.2651 21.2876C89.2651 21.5469 89.3979 21.678 89.5939 21.8748C90.0554 22.2652 90.7794 22.2652 91.2409 21.8748C91.3073 21.8092 91.3737 21.7436 91.5033 21.678C91.8984 21.8748 92.2272 22.134 92.556 22.3277C92.556 22.4588 92.4896 22.5244 92.4232 22.5869C92.1608 22.9117 91.7657 23.174 91.3041 23.2365C90.6466 23.4333 89.9859 23.4333 89.3284 23.1709C88.3389 22.8461 87.7478 21.9997 87.6814 20.9566C87.6814 20.6318 87.6814 20.307 87.7478 20.0446C88.0765 19.0046 88.9332 18.3519 90.0523 18.2863C90.381 18.2863 90.6466 18.2863 90.9754 18.3519C91.8984 18.6111 92.4232 19.2638 92.6223 20.1727C92.6887 20.3694 92.6887 20.5631 92.6887 20.7598V21.1502C92.556 21.2158 92.4264 21.2158 92.36 21.2158H89.5939C89.4611 21.2814 89.3315 21.2158 89.2651 21.2814V21.2876ZM89.2651 20.2445C89.7267 20.3101 90.9785 20.3101 91.2409 20.2445C91.2409 19.8541 91.0417 19.5293 90.713 19.3981C90.3842 19.3326 90.0554 19.3326 89.7899 19.5293C89.4611 19.6605 89.262 19.9197 89.262 20.2445H89.2651Z" fill="#667085"/>
<path d="M37.6836 21.2876H34.2568C34.2568 21.5469 34.3896 21.7436 34.5856 21.9373C35.0471 22.3277 35.7047 22.3277 36.1662 21.9373C36.2326 21.8717 36.299 21.7405 36.4286 21.7405C36.7574 21.9373 37.0861 22.1309 37.4181 22.3901C37.4181 22.5213 37.3517 22.5869 37.3517 22.6493C37.0893 22.9742 36.6941 23.2365 36.299 23.3645C35.7711 23.4957 35.1799 23.5613 34.652 23.4301C33.4665 23.1709 32.6099 22.2589 32.6762 20.8254C32.809 18.7423 34.8512 18.0271 36.299 18.6111C36.6278 18.7423 36.9565 19.0015 37.1557 19.3263C37.6172 19.7823 37.75 20.4975 37.6836 21.2783V21.2876ZM36.2326 20.2445C36.299 19.7885 35.8375 19.3326 35.4423 19.3981H35.1135C34.652 19.4637 34.3232 19.7885 34.2568 20.2445C34.5192 20.3101 35.9702 20.3101 36.2326 20.2445Z" fill="#667085"/>
<path d="M13.965 21.678C14.2938 21.8748 14.6225 22.0684 14.9545 22.3277C14.9545 22.4588 14.8881 22.5244 14.8881 22.5244C14.5593 22.8492 14.2306 23.1116 13.769 23.2396C13.2411 23.3708 12.7163 23.4364 12.122 23.3052C10.8702 23.046 10.0799 22.0684 10.1463 20.638C10.279 18.5549 12.3212 17.9053 13.769 18.4893C14.0978 18.6205 14.4266 18.8797 14.6257 19.2045C15.0872 19.7917 15.22 20.5069 15.0872 21.2876C13.9682 21.3532 12.7827 21.2876 11.6605 21.2876C11.6605 21.5469 11.7933 21.7436 11.9893 21.8748C12.4508 22.2652 13.1747 22.2652 13.6362 21.9404C13.769 21.8748 13.8354 21.7436 13.965 21.6812V21.678ZM11.7269 20.3101H13.7026C13.7026 19.7885 13.4403 19.4637 12.9787 19.3981H12.6499C12.122 19.4637 11.7933 19.7885 11.7269 20.3101Z" fill="#667085"/>
<path d="M71.6097 21.2876H68.183C68.183 21.5469 68.3158 21.7436 68.4454 21.8748C68.9069 22.2652 69.6308 22.3308 70.0924 21.9404C70.1588 21.8748 70.2915 21.8092 70.3548 21.7436C70.6835 21.9404 71.0787 22.1996 71.4074 22.3932C71.4738 22.5244 71.4074 22.59 71.341 22.59C71.0123 22.9148 70.6835 23.1772 70.222 23.3052C69.6941 23.4364 69.1693 23.502 68.575 23.3708C67.3232 23.1116 66.5328 22.134 66.5992 20.7036C66.732 18.6205 68.7741 17.9709 70.222 18.5549C70.6835 18.7516 71.0123 19.0765 71.2747 19.4669C71.537 19.9228 71.6698 20.5724 71.6034 21.2876H71.6097ZM70.1588 20.2445C70.2251 19.7885 69.7636 19.3326 69.3685 19.3981H69.0397C68.5781 19.4637 68.2494 19.7885 68.183 20.2445C68.4454 20.3101 69.8964 20.3101 70.1588 20.2445Z" fill="#667085"/>
<path d="M29.5783 21.4813C29.7774 20.9597 29.907 20.5037 30.0398 19.9853C30.1726 19.5293 30.3022 19.0733 30.5013 18.6829C30.5456 18.5101 30.6552 18.4237 30.8301 18.4237H32.0155C32.0819 18.4237 32.1483 18.4237 32.2147 18.4893C32.1483 18.7485 30.5677 22.8492 30.3717 23.174H28.6583C28.064 21.6125 27.4065 20.0509 26.8153 18.5518C26.8817 18.4206 26.9481 18.4862 27.0145 18.4862H28.3327C28.5077 18.4862 28.6172 18.5726 28.6615 18.7454C28.9239 19.4606 29.123 20.1758 29.3854 20.8941C29.3854 21.0253 29.4518 21.2189 29.5846 21.4813H29.5783Z" fill="#667085"/>
<path d="M42.359 19.0077C42.0967 19.267 41.8311 19.5949 41.5023 19.8541C41.3696 19.8541 41.3032 19.7229 41.1736 19.6574C40.9112 19.4606 40.6457 19.3981 40.3169 19.4606C40.1841 19.4606 40.1177 19.5262 39.9881 19.5262C39.789 19.6574 39.789 19.9166 39.9881 20.0478C40.0545 20.1133 40.1209 20.1133 40.2505 20.1789C40.4497 20.2445 40.5793 20.2445 40.7784 20.3101C41.0408 20.3757 41.3064 20.4413 41.5023 20.5693C42.555 21.0909 42.4254 22.4557 41.6351 22.9773C41.436 23.1084 41.3064 23.174 41.1072 23.2365C40.1841 23.4957 39.3274 23.3677 38.5371 22.9773C38.4707 22.9117 38.4044 22.8461 38.2747 22.7805C38.2084 22.7149 38.142 22.7149 38.142 22.6493C38.2747 22.4526 38.4044 22.3245 38.5371 22.1278C38.6699 21.9966 38.8659 21.8686 38.9987 21.6718C39.0651 21.6718 39.1314 21.7374 39.1978 21.803C39.397 21.9997 39.6594 22.0622 39.9217 22.1278C40.1209 22.1934 40.3169 22.1934 40.5161 22.0622C40.6488 21.9966 40.7152 21.931 40.7152 21.7374C40.7152 21.6062 40.6488 21.4782 40.5161 21.4126C40.3833 21.347 40.1873 21.2814 39.9881 21.2158C39.789 21.1502 39.6594 21.1502 39.4602 21.0846C39.3938 21.0846 39.2611 21.0191 39.1978 21.0191C38.0788 20.5631 38.1451 19.1983 38.8691 18.6767C39.1978 18.4175 39.5266 18.2863 39.9217 18.2207C40.5793 18.1551 41.24 18.2207 41.8311 18.5455C42.0935 18.7423 42.2263 18.8047 42.359 19.0015V19.0077Z" fill="#667085"/>
<path d="M45.9818 22.0684C46.0482 22.3277 46.0482 22.7836 46.0482 23.174C45.9154 23.3052 45.7858 23.3052 45.653 23.3052C45.2579 23.3708 44.9291 23.3708 44.534 23.3052C43.9396 23.174 43.6109 22.7836 43.4813 22.1996C43.4149 22.0029 43.4149 21.8092 43.4149 21.6125V19.7261C43.1525 19.5949 42.887 19.7261 42.691 19.5949C42.6246 19.2701 42.691 18.8797 42.691 18.5549C42.9533 18.4237 43.1525 18.5549 43.4149 18.4893C43.4813 18.0989 43.4149 17.7085 43.4813 17.3181C43.6804 17.2525 44.6667 17.2525 44.9955 17.3181C45.0619 17.7085 44.9955 18.0989 45.0619 18.4893C45.3906 18.5549 45.7858 18.4893 46.1146 18.5549C46.1809 18.8797 46.1146 19.2701 46.1146 19.6605C45.7194 19.7917 45.3906 19.6605 45.0619 19.7261C44.9955 19.7917 44.9955 19.8572 44.9955 19.9853V21.4813C44.9955 22.0684 45.1946 22.1965 45.7858 22.1965C45.7858 22.0653 45.8522 22.0653 45.985 22.0653L45.9818 22.0684Z" fill="#667085"/>
<path d="M85.1145 15.9502H86.6287C86.6951 16.0814 86.6951 16.2094 86.6951 16.3406V23.1084C86.4327 23.174 85.576 23.174 85.1808 23.1084C85.1145 22.9773 85.1145 22.9117 85.1145 22.7836V16.3406C85.0481 16.275 85.0481 16.1438 85.1145 15.9502Z" fill="#667085"/>
<path d="M135.444 23.174C135.245 23.2396 135.049 23.174 134.85 23.174C134.717 23.0429 134.783 22.9773 134.783 22.8492V20.8973C134.783 20.638 134.783 20.3101 134.717 20.0509C134.717 20.0072 134.695 19.9634 134.651 19.9197C134.518 19.4637 134.256 19.2045 133.794 19.1389C133.266 19.0733 132.871 19.2701 132.609 19.6605C132.409 19.9853 132.346 20.3757 132.346 20.7661V22.7836C132.346 22.9148 132.346 23.0429 132.28 23.174C132.081 23.2396 131.885 23.174 131.685 23.174C131.619 23.1084 131.619 22.9773 131.619 22.8492V20.5069C131.619 20.3101 131.619 20.1165 131.553 19.9197C131.42 19.2701 130.895 18.9422 130.301 19.1389C129.906 19.2045 129.643 19.4637 129.511 19.7885C129.311 20.1133 129.248 20.4382 129.248 20.8285V23.1053C129.049 23.1709 128.853 23.1053 128.654 23.1709C128.521 23.0397 128.587 22.9117 128.587 22.8461V18.7454C128.787 18.6798 128.983 18.6798 129.182 18.7454C129.248 18.9422 129.248 19.1358 129.248 19.3326C129.381 19.3326 129.381 19.267 129.447 19.2014C129.909 18.7454 130.437 18.5518 131.094 18.6798C131.489 18.7454 131.752 18.939 132.017 19.267C132.084 19.3326 132.084 19.4637 132.217 19.4637C132.283 19.3981 132.349 19.3326 132.349 19.267C132.612 18.8766 133.007 18.6798 133.468 18.6174H134.063C134.787 18.7485 135.248 19.1389 135.381 19.8541C135.447 20.0509 135.447 20.2445 135.447 20.3757V22.9804C135.514 23.046 135.447 23.1116 135.447 23.1772L135.444 23.174Z" fill="#667085"/>
<path d="M98.9479 16.4062H100.99C101.319 16.4062 101.648 16.4717 101.98 16.6029C102.77 16.8621 103.165 17.4493 103.165 18.2957C103.165 19.0765 102.703 19.6636 101.98 19.9228C101.584 20.054 101.256 20.1196 100.86 20.1196H100.004C99.871 20.1196 99.8046 20.1196 99.675 20.1852C99.6086 20.3163 99.6086 20.3819 99.6086 20.51V23.2427C99.4095 23.3083 99.2135 23.3083 99.0143 23.2427C98.9479 23.1116 98.9479 22.9835 98.9479 22.8523V16.6685C98.8816 16.6029 98.8816 16.5373 98.9479 16.4093V16.4062ZM99.6055 19.3981H100.99C101.252 19.3981 101.518 19.3326 101.714 19.2014C102.043 19.0046 102.242 18.7454 102.308 18.4206C102.375 17.899 102.242 17.3806 101.584 17.1182C101.385 17.0527 101.256 16.9871 101.056 16.9871H99.6719C99.6055 16.9871 99.5391 16.9871 99.5391 17.0527C99.5391 17.3775 99.5391 19.1358 99.6055 19.395V19.3981Z" fill="#667085"/>
<path d="M110.411 23.174C110.211 23.2396 110.015 23.174 109.816 23.174C109.75 22.9773 109.75 22.7836 109.683 22.5869C109.551 22.5869 109.551 22.6525 109.484 22.7181C108.89 23.3052 107.97 23.4988 107.18 23.174C106.389 22.7836 106.323 21.9373 106.585 21.3532C106.718 21.0284 106.981 20.8317 107.309 20.7661C107.704 20.6349 108.1 20.5693 108.495 20.5069H109.547C109.747 19.9853 109.415 19.4013 108.89 19.2701C108.362 19.1389 107.837 19.2045 107.309 19.5293C107.243 19.5949 107.177 19.6605 107.047 19.7261C106.914 19.5949 106.785 19.4669 106.718 19.3357C106.718 19.2045 106.785 19.2045 106.851 19.1389C107.575 18.6829 108.299 18.5518 109.156 18.7485C109.813 18.9453 110.208 19.4637 110.275 20.1789V21.4157C110.341 21.9373 110.341 22.5213 110.407 23.174H110.411ZM109.687 21.0253C109.159 21.0253 108.634 21.0253 108.106 21.1565C107.973 21.2221 107.777 21.2876 107.644 21.3532C107.382 21.4844 107.249 21.7436 107.249 22.0684C107.249 22.3932 107.448 22.6556 107.777 22.7836C108.305 22.9804 108.83 22.9148 109.225 22.5244C109.62 22.134 109.819 21.5469 109.687 21.0284V21.0253Z" fill="#667085"/>
<path d="M20.1578 23.174H18.6436C18.5772 22.9148 18.5772 18.8141 18.6436 18.4893C18.906 18.4237 19.8291 18.4237 20.1578 18.4893V23.046C20.2242 23.1116 20.1578 23.1116 20.1578 23.1772V23.174Z" fill="#667085"/>
<path d="M122.992 18.8141C123.191 18.7485 123.387 18.7485 123.586 18.8141C123.719 18.9453 123.653 19.0733 123.653 19.1389V21.2221C123.653 21.4188 123.653 21.6125 123.719 21.8092C123.918 22.7212 124.905 23.1116 125.695 22.5244C126.024 22.2652 126.223 21.8748 126.223 21.4188V19.142C126.223 19.0765 126.223 18.9453 126.289 18.8172C126.488 18.7516 126.684 18.7516 126.884 18.8172C126.95 18.9484 126.95 19.0765 126.95 19.2076V23.2427C126.751 23.3083 126.555 23.3083 126.356 23.2427C126.223 23.046 126.356 22.8523 126.289 22.6556C126.223 22.6556 126.157 22.7212 126.157 22.7868C125.562 23.4364 124.642 23.5676 123.915 23.3083C123.387 23.1116 123.191 22.6587 123.059 22.1371C122.992 21.9404 122.992 21.7468 122.992 21.6156V19.142C122.992 18.9453 122.992 18.8828 122.992 18.8172V18.8141Z" fill="#667085"/>
<path d="M49.2758 18.4893C49.6045 18.4237 50.5276 18.4237 50.79 18.4893C50.8564 18.8797 50.79 19.2701 50.79 19.6605V23.174C50.5276 23.2396 49.6709 23.2396 49.2758 23.174C49.2094 23.1084 49.2094 23.0429 49.2094 22.9773V18.6174C49.2536 18.5736 49.2758 18.5299 49.2758 18.4862V18.4893Z" fill="#667085"/>
<path d="M118.051 19.3326C118.184 19.2014 118.25 19.1358 118.38 19.0733C118.974 18.5518 119.698 18.4862 120.422 18.7485C120.751 18.8797 120.95 19.1389 121.146 19.4637C121.279 19.7229 121.345 19.9853 121.345 20.1789V23.1084C121.146 23.174 120.95 23.174 120.751 23.1084C120.684 22.9773 120.684 22.8492 120.684 22.7181V20.6349C120.684 20.4382 120.684 20.2445 120.618 20.0478C120.552 19.5918 120.356 19.2014 119.828 19.0702C119.3 18.939 118.838 19.0046 118.51 19.4606C118.31 19.6574 118.181 19.9822 118.114 20.2414C118.048 20.4382 118.048 20.6974 118.048 20.891V22.9742C117.982 23.0397 117.849 23.0397 117.786 23.0397H117.457C117.39 22.9086 117.39 22.7805 117.39 22.6493V18.6142C117.59 18.6142 117.786 18.5486 117.985 18.6142C118.051 18.939 117.985 19.1358 118.051 19.3294V19.3326Z" fill="#667085"/>
<path d="M112.057 19.2701C111.729 19.2045 111.463 19.2701 111.134 19.2045C111.068 19.0733 111.068 18.8797 111.134 18.7485C111.397 18.6829 111.729 18.7485 111.991 18.6829C112.058 18.2925 111.991 17.9021 112.057 17.5118C112.257 17.4462 112.453 17.5118 112.652 17.5118C112.718 17.9021 112.652 18.2925 112.718 18.7485C113.113 18.8141 113.508 18.7485 113.904 18.8141C113.97 18.9453 113.97 19.0733 113.97 19.2701C113.575 19.3357 113.113 19.2701 112.718 19.3357C112.652 19.4669 112.652 19.5324 112.652 19.6605V21.8748C112.652 22.006 112.652 22.134 112.718 22.2652C112.785 22.59 112.917 22.7212 113.246 22.7212C113.445 22.7212 113.641 22.6556 113.84 22.6556C113.973 22.8523 113.907 22.9804 113.907 23.1772C113.445 23.3739 112.984 23.3739 112.522 23.1772C112.26 23.046 112.061 22.8523 111.994 22.5275C111.928 22.3308 111.928 22.1371 111.928 22.006V19.2732H112.061L112.057 19.2701Z" fill="#667085"/>
<path d="M104.483 16.0158H105.078C105.144 16.1469 105.144 16.275 105.144 16.3406V23.174C104.945 23.2396 104.749 23.174 104.55 23.174C104.483 23.0429 104.483 22.9148 104.483 22.8492V16.4062C104.417 16.275 104.417 16.1469 104.483 16.0158Z" fill="#667085"/>
<path d="M115.023 18.7485C115.222 18.6829 115.418 18.6829 115.617 18.7485V23.046C115.617 23.046 115.617 23.1116 115.551 23.1116C115.484 23.2427 115.288 23.1772 115.023 23.1772V18.7485Z" fill="#667085"/>
<path d="M120.488 11.8495C120.688 10.8095 121.345 10.0287 122.135 9.76634C122.202 9.89751 122.135 10.0256 122.135 10.1567C122.069 10.416 121.873 10.6783 121.74 10.8719C121.674 11.0031 121.608 11.0687 121.541 11.1967C122.069 11.1312 122.594 11.0656 123.122 11.2623C122.989 11.5215 122.727 11.7183 122.265 11.8495C121.608 12.0462 121.08 12.1087 120.485 11.8495H120.488Z" fill="#667085"/>
<path d="M117.131 11.8495C116.603 12.1087 116.012 12.0462 115.484 11.9151C115.089 11.8495 114.76 11.7183 114.495 11.3935C114.757 11.1967 115.023 11.1967 115.285 11.1967H116.075C115.747 10.7408 115.481 10.2848 115.418 9.76634C116.142 9.89751 116.932 10.8063 117.131 11.8495Z" fill="#667085"/>
<path d="M112.848 9.44153C113.11 9.37594 113.376 9.44153 113.638 9.50711C113.9 9.5727 114.1 9.70387 114.362 9.83192C114.296 9.31036 114.163 8.79191 114.362 8.27034C114.495 8.33593 114.624 8.4671 114.691 8.59515C115.02 9.11672 115.219 9.70075 115.152 10.3535C115.086 10.7439 115.02 10.8095 114.624 10.6783C113.834 10.6127 113.24 10.1567 112.845 9.44153H112.848Z" fill="#667085"/>
<path d="M123.324 4.75367C123.586 4.81926 123.786 5.0129 123.982 5.20965C124.178 5.40641 124.31 5.60005 124.51 5.79681C124.642 5.27524 124.709 4.7568 125.104 4.42887C125.17 4.49445 125.237 4.62563 125.237 4.75367C125.436 5.46888 125.303 6.18408 124.908 6.83682C124.841 6.96799 124.775 6.96799 124.645 6.9024C123.855 6.44642 123.46 5.79681 123.327 4.88485V4.75367H123.324Z" fill="#667085"/>
<path d="M113.243 7.94554C113.376 7.42397 113.505 6.96799 113.9 6.51513C114.033 6.83994 114.1 7.10228 114.1 7.42709C114.1 7.94866 113.967 8.4671 113.638 8.92308C113.505 9.18231 113.439 9.18231 113.177 8.98867C112.649 8.59828 112.253 8.07671 112.124 7.42709C112.124 7.29592 112.057 7.10229 112.057 6.97111C112.124 6.90553 112.19 6.97111 112.257 6.97111C112.585 7.16787 112.851 7.36151 113.047 7.68631C113.113 7.7519 113.113 7.88307 113.246 7.94554H113.243Z" fill="#667085"/>
<path d="M123.719 6.5776C124.114 6.96799 124.181 7.48956 124.314 8.008C124.446 7.87683 124.576 7.74878 124.642 7.61761C124.775 7.48643 124.905 7.35838 125.037 7.22721C125.17 7.09604 125.3 6.96799 125.433 6.96799C125.499 7.09916 125.499 7.16475 125.433 7.2928C125.3 8.008 124.971 8.66074 124.314 9.05113C124.314 9.05113 124.247 9.05113 124.247 9.11672C124.114 9.18231 124.048 9.18231 123.918 9.05113C123.719 8.72633 123.59 8.40152 123.457 8.01112C123.39 7.62073 123.39 7.29592 123.457 6.90553C123.59 6.77435 123.59 6.64631 123.719 6.58072V6.5776Z" fill="#667085"/>
<path d="M123.258 8.39839C123.39 8.65762 123.39 8.85437 123.324 9.1136C123.324 9.37282 123.258 9.56958 123.258 9.89438C123.653 9.69763 124.048 9.4384 124.51 9.4384C124.576 9.4384 124.642 9.4384 124.709 9.50399C124.775 9.56958 124.709 9.63516 124.642 9.70075C124.247 10.3504 123.59 10.7408 122.799 10.8719C122.667 10.8719 122.6 10.8719 122.537 10.7408C122.338 10.0256 122.603 8.85437 123.261 8.39839C123.217 8.39839 123.217 8.39839 123.261 8.39839H123.258Z" fill="#667085"/>
<path d="M112.453 4.30082C112.848 4.7568 112.981 5.27836 113.047 5.79681C113.246 5.53759 113.376 5.34083 113.575 5.14719C113.774 4.95356 113.97 4.82238 114.169 4.69121C114.302 4.7568 114.236 4.82238 114.236 4.88797C114.103 5.60317 113.774 6.19032 113.183 6.6463C113.117 6.71189 113.05 6.71189 112.984 6.77748C112.851 6.84306 112.785 6.84306 112.655 6.71189C112.456 6.45267 112.326 6.12474 112.26 5.79993C112.193 5.34395 112.26 4.88797 112.459 4.30394L112.453 4.30082Z" fill="#667085"/>
<path d="M50.0661 17.771C49.4086 17.771 48.947 17.1838 49.2094 16.5998C49.3422 16.275 49.6045 16.0782 49.9997 16.0782C50.3948 16.0782 50.6572 16.2094 50.8564 16.5342C51.0555 16.859 50.9892 17.1838 50.79 17.4462C50.5908 17.7085 50.3285 17.771 50.0661 17.771Z" fill="#667085"/>
<path d="M19.4339 17.771C18.906 17.771 18.5108 17.3806 18.5108 16.9246C18.5108 16.403 18.906 16.0782 19.4339 16.0782C20.0914 16.0782 20.4866 16.6654 20.2906 17.2494C20.1578 17.5742 19.8291 17.771 19.4339 17.771Z" fill="#667085"/>
<path d="M122.268 3.1921C122.863 3.1921 123.321 3.38886 123.782 3.71366C123.716 3.1921 123.583 2.73612 123.782 2.28326C123.849 2.28326 123.915 2.34885 123.915 2.34885C124.443 2.936 124.639 3.6512 124.51 4.43199C124.51 4.62875 124.443 4.69121 124.247 4.62875C123.39 4.49758 122.733 4.0416 122.271 3.19834L122.268 3.1921Z" fill="#667085"/>
<path d="M115.285 3.1921C115.285 3.27955 115.263 3.34513 115.219 3.38886C114.824 4.03847 114.229 4.42887 113.439 4.56004C113.24 4.56004 113.177 4.56004 113.11 4.30082C113.044 3.91042 113.11 3.45444 113.243 3.06405C113.376 2.73924 113.572 2.41443 113.837 2.15209C114.1 2.67365 113.904 3.12963 113.837 3.64808C114.1 3.58249 114.299 3.38886 114.561 3.32327C114.76 3.32327 115.023 3.25768 115.285 3.1921Z" fill="#667085"/>
<path d="M122.268 2.0865C122.006 1.69611 121.74 1.30571 121.674 0.784146C122.069 0.849732 122.331 1.04337 122.597 1.30571C122.926 1.63052 123.191 2.0865 123.255 2.54248C122.66 2.93288 121.279 2.73924 120.817 2.21767C121.016 2.0865 121.279 2.0865 121.475 2.0865H122.268Z" fill="#667085"/>
<path d="M115.946 0.849732C115.879 1.10895 115.813 1.3713 115.683 1.56493C115.554 1.75857 115.421 1.95533 115.288 2.21455C115.816 2.21455 116.278 2.08338 116.736 2.34572C116.341 2.86729 115.023 3.12651 114.365 2.73612C114.299 1.95533 115.089 1.04337 115.946 0.849732Z" fill="#667085"/>
<path d="M116.537 12.4991C116.998 12.4991 117.394 12.3679 117.722 12.2399C118.051 12.1087 118.446 11.9807 118.775 11.8495C119.237 11.7183 119.698 11.7839 120.16 11.9807C120.422 12.1118 120.688 12.3055 120.817 12.5678C120.884 12.699 120.95 12.827 120.884 12.9582C120.751 12.9582 120.684 12.8926 120.621 12.827C120.093 12.371 119.502 12.3055 118.841 12.4366C118.579 12.5022 118.38 12.5678 118.118 12.6334C117.789 12.699 117.523 12.8301 117.194 12.8301C116.995 12.7646 116.799 12.7646 116.537 12.5053V12.4991Z" fill="#667085"/>
<path d="M151.585 3.71366C150.795 3.71366 150.201 3.25768 150.071 2.54248C149.872 1.69611 150.4 0.915319 151.257 0.784146C151.98 0.652974 152.771 1.04337 152.97 1.69611C153.365 2.8017 152.641 3.77925 151.585 3.71366ZM150.267 2.28326C150.267 2.99846 150.795 3.52003 151.585 3.52003C152.309 3.52003 152.904 2.99846 152.904 2.28326C152.904 1.56806 152.376 0.980905 151.585 0.980905C150.795 0.980905 150.201 1.63052 150.267 2.28326Z" fill="#667085"/>
<path d="M116.142 1.63052C116.341 1.04337 117.526 0.524924 118.25 0.71856C118.184 0.977782 117.988 1.17454 117.526 1.43376C116.998 1.69298 116.537 1.75857 116.142 1.63052Z" fill="#667085"/>
<path d="M119.303 0.71856C120.027 0.587387 121.146 1.04337 121.412 1.63052C121.279 1.76169 121.149 1.69611 121.016 1.69611C120.488 1.63052 120.027 1.49935 119.632 1.17454C119.499 1.04337 119.369 0.915319 119.303 0.71856Z" fill="#667085"/>
<path d="M115.813 16.9902C115.813 17.2494 115.614 17.4462 115.351 17.4462C115.089 17.4462 114.89 17.2494 114.89 16.9902C114.89 16.731 115.089 16.5342 115.351 16.5342C115.614 16.5342 115.813 16.731 115.813 16.9902Z" fill="#667085"/>
<path d="M151.98 2.41131C152.113 2.60807 152.18 2.86729 152.309 3.06093C152.134 3.10465 152.025 3.08279 151.98 2.99534C151.914 2.86417 151.848 2.79858 151.781 2.67053C151.715 2.54248 151.649 2.47377 151.453 2.47377H151.32C151.253 2.60494 151.253 2.73299 151.253 2.86417V3.06093C151.253 3.12651 151.187 3.12651 151.121 3.12651C151.054 3.12651 150.988 3.12651 150.988 3.06093V1.43689C151.25 1.3713 151.778 1.3713 151.911 1.43689C152.24 1.56806 152.372 1.95845 152.173 2.28326C152.107 2.28326 152.041 2.34885 151.974 2.41443L151.98 2.41131ZM151.253 2.15209C151.386 2.21767 151.453 2.21767 151.516 2.21767H151.649C151.848 2.21767 151.911 2.0865 151.911 1.95845C151.911 1.8304 151.845 1.69923 151.649 1.69923H151.253C151.253 1.8304 151.253 2.02404 151.253 2.15521V2.15209Z" fill="#667085"/>
</svg>
