<svg viewBox="0 0 149 28" fill="none" xmlns="http://www.w3.org/2000/svg">
<path fill-rule="evenodd" clip-rule="evenodd" d="M28.3789 8.55976C28.3254 9.96335 27.74 11.0414 26.7335 11.878C23.9316 14.2021 21.0691 16.4598 18.31 18.8329C17.4356 19.589 17.0893 18.9239 16.6146 18.5179C15.9222 17.9264 16.6432 17.6218 16.968 17.3138C19.1595 15.2207 21.3225 13.103 23.6175 11.1114C25.627 9.36831 25.5984 7.50619 23.6889 5.72457C22.9608 5.04553 22.1648 4.42949 21.4974 3.70144C20.6943 2.82289 19.9233 2.80189 18.9739 3.45293C18.567 3.73295 18.1994 4.5275 17.4855 3.70845C16.8538 2.9839 17.1643 2.49037 17.6961 1.95833C18.0959 1.55931 18.4492 1.11828 18.8811 0.757756C20.1161 -0.27481 21.0119 -0.253808 22.2184 0.831261C23.6032 2.07384 24.981 3.33042 26.3408 4.5975C27.5187 5.69657 28.3039 6.99515 28.3753 8.56326L28.3789 8.55976Z" fill="#667085"/>
<path fill-rule="evenodd" clip-rule="evenodd" d="M9.55821 0.456737C10.9895 0.34473 12.0531 1.22679 12.9776 2.29435C15.2904 4.97553 17.4177 7.80721 19.8876 10.3554C20.6479 11.1359 19.8341 11.4579 19.4736 11.913C18.9561 12.564 18.6991 12.0075 18.385 11.6855C16.3719 9.59932 14.1982 7.6742 12.3137 5.46556C10.5469 3.39693 8.1662 2.45186 5.95683 5.50756C5.53209 6.0956 4.97528 6.61013 4.41848 7.08266C3.47977 7.87721 3.40124 8.68926 4.14365 9.65533C4.46845 10.0789 5.07879 10.4674 4.28285 11.1289C3.54044 11.745 3.14426 11.3984 2.6517 10.9014C2.22696 10.4744 1.71298 10.1244 1.33107 9.66583C0.271005 8.38824 0.313836 7.6182 1.44886 6.42462C2.81945 4.98253 4.17577 3.52993 5.57135 2.11234C6.61 1.06228 7.85924 0.404234 9.55464 0.449737L9.55821 0.456737Z" fill="#667085"/>
<path fill-rule="evenodd" clip-rule="evenodd" d="M19.2702 28C17.7282 27.916 16.5504 27.2405 15.6188 26.1344C13.3595 23.4637 11.2322 20.681 8.79439 18.1574C8.15192 17.4923 8.46245 17.0618 8.99069 16.5438C9.62245 15.9242 9.90799 16.3548 10.3327 16.8063C12.435 19.0464 14.6837 21.1431 16.761 23.4147C18.5063 25.3258 20.3873 25.1858 22.1434 23.3097C22.7645 22.6482 23.4069 22.0006 24.0565 21.3636C25.2201 20.2155 25.2522 19.869 24.285 18.5144C24.0137 18.1329 23.4355 17.8354 24.1957 17.2963C24.7704 16.8868 25.1594 16.6418 25.7234 17.2788C26.1481 17.7618 26.737 18.1014 27.1689 18.5774C28.2254 19.757 28.1754 20.8245 27.0797 21.9726C25.7019 23.4112 24.3349 24.8568 22.9465 26.2849C21.9364 27.3245 20.6657 27.832 19.2773 27.9965L19.2702 28Z" fill="#667085"/>
<path fill-rule="evenodd" clip-rule="evenodd" d="M0.00687992 19.0814C-0.0716437 18.0839 0.527991 17.0583 1.49883 16.2462C3.75817 14.3561 6.0532 12.5115 8.32681 10.6424C8.8622 10.2014 9.41901 9.77783 9.89015 9.2773C10.5112 8.61576 10.9645 8.68226 11.5748 9.3298C12.0531 9.83734 12.0139 10.0649 11.5142 10.5269C9.39045 12.4975 7.41665 14.6221 5.15731 16.4598C4.55054 16.9533 4.01872 17.5098 3.65109 18.2169C2.91225 19.638 3.02647 20.73 4.15435 21.8466C5.10735 22.7882 6.11744 23.6737 7.10613 24.5803C7.91992 25.3223 8.67303 25.0458 9.4547 24.4893C9.84732 24.2128 10.1971 23.5722 10.8396 24.3143C11.4071 24.9653 11.3143 25.4028 10.7289 25.9209C10.4077 26.2044 10.1614 26.5684 9.86159 26.8799C8.48386 28.3045 7.41665 28.343 5.95683 27.0129C4.51842 25.7004 3.0693 24.3983 1.66658 23.0507C0.642207 22.0566 0.00331067 20.8595 0.00687992 19.0814Z" fill="#667085"/>
<path d="M50.1978 21.2831L49.2697 9.42081C49.2519 9.1828 49.234 8.92728 49.2198 8.64726C49.2019 8.37074 49.1912 8.10123 49.1805 7.83871C49.1734 7.57619 49.1627 7.33818 49.1555 7.11766C49.1448 6.90065 49.1412 6.72214 49.1412 6.58563H49.0913C49.0413 6.83765 48.9521 7.21917 48.8343 7.7232C48.7129 8.23073 48.5844 8.71727 48.4488 9.1898L44.9152 21.2796H42.7737L39.5221 9.74633C39.3329 9.07079 39.1652 8.43025 39.0188 7.82471C38.8725 7.21917 38.7726 6.79564 38.7226 6.56113H38.6726C38.6726 6.71164 38.6619 6.92515 38.6476 7.19467C38.6298 7.46419 38.6119 7.7512 38.5977 8.05572C38.5798 8.36024 38.562 8.66476 38.5441 8.96578C38.5263 9.2703 38.5084 9.52932 38.4942 9.74983L37.5911 21.2831H35.1676L36.7666 3.85545H40.2502L43.2413 14.5556C43.4304 15.2627 43.5768 15.8717 43.6803 16.3758C43.7838 16.8833 43.8516 17.2263 43.8873 17.4118H43.9408C43.973 17.1913 44.0443 16.8308 44.1479 16.3233C44.2514 15.8157 44.387 15.2697 44.5619 14.6781L47.6564 3.85195H51.165L52.6891 21.2796H50.212L50.1978 21.2831Z" fill="#667085"/>
<path d="M56.3619 15.4412V15.7457C56.3619 16.8588 56.5439 17.7023 56.9044 18.2764C57.247 18.7804 57.6753 19.1584 58.1822 19.4C58.689 19.645 59.253 19.7675 59.8704 19.7675C61.0554 19.7675 62.1155 19.3614 63.0435 18.5529L63.9465 19.946C62.6901 21.0241 61.2053 21.5631 59.485 21.5631C58.5891 21.5631 57.786 21.4056 57.0721 21.0941C56.3583 20.7825 55.7515 20.338 55.2518 19.7675C54.7521 19.1934 54.3702 18.4934 54.1025 17.6673C53.8348 16.8413 53.7028 15.9067 53.7028 14.8602C53.7028 13.8136 53.8241 12.8335 54.0633 12.067C54.306 11.3004 54.6986 10.5969 55.2518 9.95635C56.2655 8.79077 57.5647 8.20973 59.1459 8.20973C60.5736 8.20973 61.7407 8.66476 62.6544 9.57482C62.9293 9.86184 63.1649 10.1699 63.3647 10.4989C63.561 10.8279 63.7252 11.2059 63.8537 11.6365C63.9822 12.067 64.0786 12.5605 64.1357 13.117C64.1964 13.6736 64.2249 14.3141 64.2249 15.0387V15.4447H56.3583L56.3619 15.4412ZM61.755 13.7226C61.755 12.4835 61.4873 11.5384 60.9555 10.8839C60.7485 10.6319 60.4915 10.4219 60.181 10.2574C59.8704 10.0894 59.5099 10.0053 59.0959 10.0053C58.1857 10.0053 57.5076 10.3344 57.0579 10.9994C56.6117 11.661 56.3868 12.5675 56.3868 13.7261H61.7514L61.755 13.7226Z" fill="#667085"/>
<path d="M70.5496 10.2539H67.9976V17.8914C67.9976 18.6859 68.1118 19.2249 68.3438 19.512C68.5758 19.799 69.0184 19.9425 69.6716 19.9425C70.0856 19.9425 70.489 19.8585 70.8852 19.6905L71.1671 21.1081C70.4461 21.4616 69.6609 21.6401 68.8186 21.6401C68.3902 21.6401 67.9655 21.5806 67.5479 21.4616C67.1303 21.3426 66.8198 21.1921 66.6092 21.0066C66.47 20.891 66.3451 20.7755 66.2308 20.667C66.1166 20.5585 66.0167 20.415 65.931 20.2365C65.8454 20.0615 65.774 19.827 65.724 19.54C65.6705 19.2529 65.6455 18.8819 65.6455 18.4269V10.2574H64.0964V8.61226H65.6455C65.6455 8.12223 65.6526 7.58319 65.6705 6.99516C65.6883 6.40712 65.7311 5.86458 65.799 5.37805L68.276 4.82152C68.2403 5.05953 68.2118 5.32205 68.1868 5.61957C68.1618 5.91359 68.1404 6.23211 68.1226 6.56813C68.1047 6.90765 68.0869 7.25067 68.069 7.60419C68.0512 7.95772 68.044 8.29724 68.044 8.61576H71.1921L70.5461 10.2609L70.5496 10.2539Z" fill="#667085"/>
<path d="M80.6078 21.8151C79.7655 21.4966 79.1908 20.8875 78.8803 19.995C78.7946 20.0965 78.659 20.24 78.4805 20.4255C78.2985 20.611 78.0594 20.7965 77.7595 20.9821C77.4597 21.1676 77.1028 21.3286 76.6888 21.4616C76.2747 21.5981 75.7857 21.6646 75.2182 21.6646C73.9297 21.6646 72.9089 21.3496 72.1594 20.716C71.4134 20.0825 71.0386 19.1584 71.0386 17.9474C71.0386 16.4633 71.6097 15.3397 72.7554 14.5836C73.8976 13.8241 75.5216 13.4461 77.6168 13.4461H78.0558C78.195 13.4461 78.3485 13.4531 78.5198 13.4706V12.6375C78.5198 12.2665 78.4984 11.927 78.4555 11.612C78.4127 11.3004 78.3235 11.0344 78.1843 10.8139C78.0451 10.5969 77.8452 10.4254 77.5775 10.3099C77.3098 10.1909 76.9529 10.1314 76.5067 10.1314C75.8179 10.1314 75.1183 10.2749 74.4044 10.5619C73.6906 10.8489 73.066 11.1849 72.5341 11.5734L71.4527 9.90384C71.7632 9.73583 72.1023 9.55032 72.4699 9.34731C72.8375 9.14429 73.248 8.96228 73.6942 8.80127C74.1403 8.64026 74.6257 8.50725 75.1504 8.39524C75.6751 8.28674 76.2462 8.23073 76.8672 8.23073C77.8131 8.23073 78.6126 8.39874 79.2658 8.73827C79.9189 9.07779 80.3651 9.58182 80.6078 10.2574C80.6613 10.3939 80.7006 10.5269 80.7363 10.6634C80.772 10.7999 80.797 10.9504 80.8148 11.1184C80.8327 11.2864 80.8434 11.4824 80.8541 11.6995C80.8612 11.92 80.8684 12.179 80.8684 12.4835C80.8684 12.718 80.8648 13.005 80.8541 13.3446C80.8434 13.6806 80.8327 14.0621 80.8148 14.4821C80.797 14.9057 80.7827 15.3467 80.7756 15.8087C80.7648 16.2743 80.7613 16.7328 80.7613 17.1878C80.7613 17.6428 80.772 18.0034 80.7863 18.3149C80.8041 18.6264 80.8469 18.8994 80.9148 19.1374C80.9826 19.3719 81.0861 19.5785 81.2253 19.757C81.3645 19.932 81.5608 20.0965 81.8178 20.2505L80.6042 21.8186L80.6078 21.8151ZM78.4662 15.0597C78.2771 15.0422 78.1272 15.0317 78.0165 15.0212C77.9023 15.0142 77.7952 15.0107 77.6917 15.0107C76.7994 15.0107 76.0749 15.0912 75.5252 15.2522C74.9755 15.4132 74.5722 15.6372 74.3116 15.9207C74.0689 16.2077 73.8976 16.4808 73.7941 16.7433C73.6906 17.0058 73.6406 17.3453 73.6406 17.7688C73.6406 18.4759 73.8155 19.0219 74.1689 19.4C74.5222 19.778 75.0255 19.9705 75.6787 19.9705C76.2283 19.9705 76.7459 19.82 77.2277 19.5155C77.7096 19.2109 78.095 18.8084 78.3877 18.3009L78.4662 15.0632V15.0597Z" fill="#667085"/>
<path d="M98.2007 24.1918C98.115 24.2408 97.9508 24.2968 97.7117 24.3563C97.469 24.4158 97.1335 24.4438 96.7051 24.4438C96.4125 24.4438 96.1126 24.3983 95.8021 24.3038C95.4916 24.2128 95.1918 24.1008 94.8991 23.9747C94.6064 23.8487 94.3316 23.7087 94.0746 23.5582C93.8176 23.4077 93.5928 23.2712 93.4036 23.1522C92.8539 22.7987 92.3078 22.4871 91.7653 22.2176C91.2228 21.9481 90.5232 21.7206 89.663 21.5351C88.478 21.5351 87.475 21.3251 86.6577 20.905C85.8403 20.4815 85.1408 19.925 84.5554 19.2354C83.8487 18.4269 83.3311 17.4573 82.9956 16.3268C82.6601 15.1962 82.4924 13.9151 82.4924 12.4835C82.4924 10.5759 82.8065 8.92378 83.4347 7.52369C84.0628 6.1236 84.9587 5.08753 86.1294 4.41199C87.1253 3.83795 88.3031 3.55094 89.663 3.55094C91.0229 3.55094 92.1365 3.80995 93.0538 4.32098C93.9747 4.83552 94.7099 5.47956 95.2596 6.25661C95.8271 7.06516 96.2554 7.99272 96.5481 9.03929C96.8408 10.0859 96.9871 11.2899 96.9871 12.655C96.9871 14.2896 96.773 15.6757 96.3411 16.8028C95.9128 17.9334 95.2846 18.9029 94.4565 19.7115C94.2673 19.897 94.0817 20.065 93.9033 20.219C93.7212 20.3695 93.4964 20.5305 93.2215 20.6985C93.6177 20.835 94.0139 21.0136 94.4065 21.2411C94.8027 21.4686 95.1454 21.6681 95.4381 21.8361C95.7307 22.0041 96.0698 22.1686 96.4553 22.3296C96.8408 22.4906 97.2834 22.5712 97.7831 22.5712C98.0079 22.5712 98.2185 22.5642 98.4148 22.5466C98.6111 22.5292 98.7717 22.5046 98.8931 22.4696L98.1971 24.1883L98.2007 24.1918ZM94.1246 12.886C94.1246 11.724 94.0603 10.7369 93.9318 9.92834C93.8033 9.11979 93.6177 8.41975 93.3786 7.82821C93.2572 7.55869 93.0966 7.27867 92.9003 6.99165C92.704 6.70464 92.4542 6.44912 92.1508 6.22161C91.8474 5.99409 91.494 5.80858 91.08 5.66507C90.666 5.52156 90.1948 5.45156 89.6594 5.45156C88.9027 5.45156 88.2103 5.62307 87.5821 5.96959C86.9539 6.31611 86.4864 6.76764 86.1758 7.32418C85.851 7.91571 85.6119 8.60176 85.4656 9.38581C85.3192 10.1699 85.2443 11.1184 85.2443 12.2315C85.2443 13.6491 85.3656 14.8742 85.6048 15.9102C85.8475 16.9463 86.1651 17.7198 86.5613 18.2239C86.9397 18.6964 87.4108 19.0604 87.9819 19.3124C88.5494 19.5645 89.1597 19.6905 89.8129 19.6905C91.1871 19.6905 92.2364 19.1759 92.961 18.1469C93.3572 17.6078 93.6499 16.9253 93.839 16.0992C94.0282 15.2732 94.1246 14.2021 94.1246 12.886Z" fill="#667085"/>
<path d="M107.434 21.7136C107.106 21.4756 106.853 21.2236 106.674 20.9541C106.492 20.6845 106.342 20.331 106.221 19.89C105.207 21.1046 103.908 21.7101 102.327 21.7101C101.502 21.7101 100.785 21.5421 100.174 21.2026C99.5641 20.8665 99.1215 20.401 98.8467 19.8095C98.7253 19.5575 98.6432 19.2529 98.604 18.8994C98.5612 18.5459 98.5397 18.1399 98.5397 17.6848V8.67876L100.888 8.22373V17.0513C100.888 17.6918 100.928 18.1679 101.003 18.4794C101.081 18.7909 101.238 19.0569 101.481 19.2774C101.652 19.428 101.873 19.561 102.138 19.6695C102.405 19.7815 102.684 19.834 102.976 19.834C103.562 19.834 104.129 19.6415 104.679 19.2529C105.229 18.8644 105.643 18.3919 105.917 17.8354V8.72777L108.266 8.27274V17.8108C108.266 19.1269 108.534 20.002 109.065 20.443L107.441 21.7066L107.434 21.7136Z" fill="#667085"/>
<path d="M121.026 15.0597C121.026 16.0712 120.894 16.9813 120.626 17.7898C120.359 18.5984 119.98 19.2879 119.491 19.8515C119.002 20.4185 118.413 20.856 117.724 21.1676C117.036 21.4791 116.261 21.6366 115.404 21.6366C114.548 21.6366 113.766 21.4791 113.07 21.1676C112.374 20.856 111.785 20.408 111.303 19.827C110.822 19.2459 110.454 18.5389 110.193 17.7128C109.936 16.8868 109.808 15.9592 109.808 14.9302C109.808 13.9011 109.936 12.9805 110.193 12.1615C110.45 11.3424 110.822 10.6424 111.303 10.0614C111.785 9.48031 112.363 9.03229 113.045 8.72077C113.723 8.40925 114.494 8.25174 115.354 8.25174C116.3 8.25174 117.128 8.42675 117.842 8.78377C118.556 9.13729 119.149 9.62032 119.623 10.2259C120.098 10.8314 120.448 11.5489 120.68 12.375C120.912 13.2011 121.03 14.0936 121.03 15.0562L121.026 15.0597ZM118.371 15.1612C118.371 14.1846 118.303 13.3656 118.163 12.7075C118.024 12.0495 117.824 11.5279 117.557 11.1394C117.289 10.7509 116.971 10.4744 116.604 10.3064C116.236 10.1384 115.819 10.0544 115.354 10.0544C114.323 10.0544 113.581 10.4254 113.124 11.1674C112.667 11.9095 112.438 13.082 112.438 14.6851C112.438 15.6477 112.503 16.4563 112.631 17.1143C112.76 17.7723 112.949 18.3044 113.199 18.7069C113.449 19.1129 113.763 19.4035 114.141 19.5785C114.519 19.757 114.958 19.8445 115.458 19.8445C116.35 19.8445 117.061 19.477 117.585 18.7454C118.11 18.0104 118.371 16.8203 118.371 15.1647V15.1612Z" fill="#667085"/>
<path d="M127.476 10.2539H124.924V17.8914C124.924 18.6859 125.038 19.2249 125.27 19.512C125.502 19.799 125.944 19.9425 126.598 19.9425C127.012 19.9425 127.415 19.8585 127.811 19.6905L128.097 21.1081C127.372 21.4616 126.591 21.6401 125.748 21.6401C125.32 21.6401 124.895 21.5806 124.478 21.4616C124.06 21.3426 123.746 21.1921 123.539 21.0066C123.4 20.891 123.275 20.7755 123.16 20.667C123.05 20.5585 122.946 20.415 122.861 20.2365C122.775 20.0615 122.704 19.827 122.654 19.54C122.6 19.2529 122.575 18.8819 122.575 18.4269V10.2574H121.026V8.61226H122.575C122.575 8.12223 122.582 7.58319 122.6 6.99516C122.618 6.40712 122.661 5.86458 122.729 5.37805L125.206 4.82152C125.17 5.05953 125.141 5.32205 125.116 5.61957C125.091 5.91359 125.07 6.23211 125.052 6.56813C125.034 6.90765 125.016 7.25067 125.002 7.60419C124.984 7.95772 124.977 8.29724 124.977 8.61576H128.125L127.479 10.2609L127.476 10.2539Z" fill="#667085"/>
<path d="M130.752 15.4412V15.7457C130.752 16.8588 130.934 17.7023 131.295 18.2764C131.637 18.7804 132.062 19.1584 132.573 19.4C133.079 19.645 133.643 19.7675 134.261 19.7675C135.446 19.7675 136.506 19.3614 137.434 18.5529L138.337 19.946C137.081 21.0241 135.592 21.5631 133.875 21.5631C132.979 21.5631 132.176 21.4056 131.463 21.0941C130.749 20.7825 130.142 20.338 129.642 19.7675C129.143 19.1934 128.761 18.4934 128.493 17.6673C128.225 16.8413 128.093 15.9067 128.093 14.8602C128.093 13.8136 128.215 12.8335 128.454 12.067C128.693 11.3004 129.089 10.5969 129.639 9.95635C130.652 8.79077 131.952 8.20973 133.533 8.20973C134.96 8.20973 136.128 8.66476 137.041 9.57482C137.316 9.86184 137.552 10.1699 137.752 10.4989C137.948 10.8279 138.112 11.2059 138.241 11.6365C138.369 12.067 138.465 12.5605 138.526 13.117C138.587 13.6736 138.615 14.3141 138.615 15.0387V15.4447H130.749L130.752 15.4412ZM136.142 13.7226C136.142 12.4835 135.874 11.5384 135.342 10.8839C135.135 10.6319 134.878 10.4219 134.568 10.2574C134.257 10.0894 133.897 10.0053 133.486 10.0053C132.576 10.0053 131.894 10.3344 131.448 10.9994C131.002 11.661 130.777 12.5675 130.777 13.7261H136.142V13.7226Z" fill="#667085"/>
<path d="M148.909 17.3873C148.909 18.0279 148.784 18.6054 148.531 19.1199C148.277 19.6345 147.928 20.0825 147.474 20.4605C147.021 20.842 146.486 21.1326 145.865 21.3321C145.243 21.5351 144.555 21.6366 143.798 21.6366C143.041 21.6366 142.195 21.5246 141.36 21.2936C140.525 21.0661 139.732 20.7335 138.972 20.296L139.825 18.6264C140.446 18.9624 141.11 19.2599 141.824 19.512C142.538 19.764 143.255 19.89 143.976 19.89C144.697 19.89 145.279 19.7045 145.718 19.3334C146.157 18.9624 146.375 18.4619 146.375 17.8389C146.375 17.2998 146.204 16.8623 145.861 16.5333C145.518 16.2042 144.969 15.9732 144.215 15.8367L142.649 15.5322C141.621 15.3292 140.843 14.9302 140.311 14.3281C139.779 13.7296 139.515 12.956 139.515 12.0075C139.515 11.4334 139.625 10.9014 139.85 10.4114C140.075 9.92134 140.393 9.50132 140.803 9.15479C141.217 8.80827 141.706 8.53875 142.274 8.34274C142.841 8.14673 143.477 8.05222 144.183 8.05222C144.976 8.05222 145.718 8.15023 146.414 8.34624C147.11 8.54225 147.724 8.79427 148.259 9.10229L147.46 10.7579C146.857 10.4709 146.307 10.2469 145.807 10.0894C145.308 9.92834 144.801 9.84784 144.287 9.84784C143.598 9.84784 143.052 10.0193 142.649 10.3659C142.245 10.7124 142.042 11.1709 142.042 11.745C142.042 12.2 142.174 12.564 142.442 12.8335C142.706 13.103 143.184 13.3131 143.873 13.4671L145.55 13.8451C146.735 14.1146 147.592 14.5626 148.117 15.1857C148.641 15.8087 148.902 16.5438 148.902 17.3873H148.909Z" fill="#667085"/>
</svg>
