<svg xmlns="http://www.w3.org/2000/svg" xmlns:xlink="http://www.w3.org/1999/xlink" id="a" data-name="Layer 1" viewBox="0 0 160 160"><defs><linearGradient id="b" x1="114.77" x2="67.8" y1="236.2" y2="326.15" gradientTransform="translate(0 -198)" gradientUnits="userSpaceOnUse"><stop offset="0" stop-color="#00ffa3"/><stop offset="1" stop-color="#dc1fff"/></linearGradient><linearGradient xlink:href="#b" id="c" x1="94.24" x2="47.27" y1="225.48" y2="315.43"/><linearGradient xlink:href="#b" id="d" x1="104.44" x2="57.47" y1="230.8" y2="320.76"/></defs><circle cx="80" cy="79.63" r="63.92" style="fill:#231f20;stroke-width:0"/><path d="M51.42 97.07c.51-.51 1.22-.81 1.97-.81h67.86c1.24 0 1.86 1.5.98 2.37l-13.41 13.41c-.51.51-1.22.81-1.97.81H39c-1.24 0-1.86-1.5-.98-2.37l13.41-13.41Z" style="fill:url(#b);stroke-width:0"/><path d="M51.42 47.02c.53-.51 1.24-.81 1.97-.81h67.86c1.24 0 1.86 1.5.98 2.37l-13.41 13.41c-.51.51-1.22.81-1.97.81H39c-1.24 0-1.86-1.5-.98-2.37l13.41-13.41Z" style="fill:url(#c);stroke-width:0"/><path d="M108.83 71.88c-.51-.51-1.22-.81-1.97-.81H39c-1.24 0-1.86 1.5-.98 2.37l13.41 13.41c.51.51 1.22.81 1.97.81h67.86c1.24 0 1.86-1.5.98-2.37l-13.41-13.41Z" style="fill:url(#d);stroke-width:0"/></svg>