<svg xmlns="http://www.w3.org/2000/svg" id="Layer_2" data-name="Layer 2" viewBox="0 0 160 160"><defs><filter id="drop-shadow-2" filterUnits="userSpaceOnUse"><feOffset dx="1.42" dy="1.42"/><feGaussianBlur result="blur" stdDeviation=".85"/><feFlood flood-color="#231f20" flood-opacity=".66"/><feComposite in2="blur" operator="in"/><feComposite in="SourceGraphic"/></filter><style>.cls-1{fill:#fff;filter:url(#drop-shadow-2);stroke-width:0}.cls-2{stroke-width:0;fill:#d12027}</style></defs><circle cx="80" cy="79.85" r="63.92" class="cls-2"/><path d="M109.87 63.09c-2.9-2.03-5.99-4.19-9.02-6.33-.07-.05-.14-.1-.22-.15-.36-.29-.76-.52-1.19-.67l-.03-.02c-8.1-1.96-16.34-3.97-24.31-5.91l-21.68-5.28-.57-.15c-.65-.18-1.41-.39-2.21-.28-.22.03-.43.11-.62.23l-.2.17c-.25.26-.45.57-.57.9l-.05.13v.77l.03.12c4.57 12.81 9.26 25.8 13.78 38.37 3.48 9.68 7.1 19.71 10.63 29.55.22.67.83 1.1 1.61 1.17h.17c.68.02 1.33-.33 1.67-.92l13.26-19.34 9.7-14.13c1.32-1.92 2.64-3.87 3.97-5.79 2.17-3.18 4.42-6.46 6.64-9.66l.12-.17v-.2c.05-.59.06-1.79-.91-2.43m-15.54 7.05c-3.11 1.62-6.3 3.29-9.49 4.95l5.59-5.99c2.33-2.51 4.75-5.1 7.13-7.65l.05-.05c.2-.27.45-.52.72-.79.19-.18.39-.37.57-.59 1.24.85 2.49 1.73 3.7 2.58.87.62 1.76 1.24 2.66 1.86-3.68 1.87-7.36 3.8-10.93 5.68m-8-.81c-2.39 2.6-4.87 5.26-7.33 7.89-4.77-5.79-9.65-11.67-14.37-17.35l-6.44-7.75-.02-.02c-.49-.55-.95-1.15-1.42-1.72-.3-.39-.62-.75-.94-1.14 1.94.5 3.9.97 5.83 1.42 1.69.4 3.45.82 5.17 1.25l29.15 7.08c-3.23 3.45-6.48 6.95-9.63 10.33m-8.42 32.63c.18-1.75.39-3.56.55-5.34l.45-4.27c.23-2.23.48-4.54.69-6.8l.05-.4c.17-1.44.34-2.93.44-4.42.18-.1.39-.2.6-.29.25-.12.5-.22.75-.37 3.87-2.02 7.73-4.05 11.62-6.06 3.87-2.01 7.84-4.08 11.77-6.14-3.57 5.17-7.12 10.35-10.67 15.54-3 4.37-6.08 8.87-9.14 13.31-1.21 1.77-2.46 3.58-3.65 5.32a507.96 507.96 0 0 0-4.05 5.93c.17-2.01.37-4.03.59-6.01M54.57 53.16c-.22-.6-.45-1.22-.65-1.81 4.52 5.46 9.07 10.95 13.51 16.27 2.29 2.76 4.59 5.51 6.88 8.28.45.52.9 1.07 1.34 1.61.57.69 1.14 1.41 1.76 2.1-.2 1.72-.37 3.47-.56 5.14-.12 1.17-.23 2.35-.37 3.53v.02c-.05.75-.15 1.51-.23 2.24l-.39 3.33-.02.12c-.3 3.38-.67 6.8-1.02 10.11-.15 1.37-.28 2.78-.44 4.19-.08-.25-.18-.5-.27-.74-.25-.68-.5-1.37-.73-2.06l-1.79-4.97c-5.68-15.79-11.35-31.56-17.03-47.36" class="cls-1"/></svg>