<svg viewBox="0 0 81 30" fill="none" xmlns="http://www.w3.org/2000/svg">
<path d="M0.909058 17.1205H4.78613C5.3977 19.9556 6.87378 22.2358 9.22569 23.9309C11.2378 25.3822 13.5143 26.0685 15.9945 26.0122C20.6115 25.9072 25.3795 22.8546 26.697 17.1355C27.0783 17.0904 30.4118 17.0904 30.7704 17.1355C29.9437 23.7509 24.1752 29.7925 16.2399 29.995C8.33476 30.1938 1.951 24.4522 0.912833 17.1205" fill="#667085"/>
<path d="M4.74082 12.9389H0.946809C1.4187 7.63987 6.00172 1.22322 13.6841 0.154409C22.6576 -1.09067 29.8342 5.37848 30.7817 12.9089C30.4797 12.9652 27.2633 12.9802 26.7159 12.9239C26.0704 9.8 24.4282 7.3211 21.7063 5.57724C19.9395 4.44467 17.9916 3.88589 15.8888 3.85964C13.1594 3.82588 10.732 4.66969 8.62544 6.38729C6.53024 8.0974 5.27312 10.3175 4.74082 12.9389Z" fill="#667085"/>
<path d="M24.1564 12.9427H21.1891C20.5171 11.3113 19.3733 10.1225 17.6858 9.50373C16.4211 9.0387 15.1262 9.0162 13.8427 9.42873C11.3398 10.2388 9.65228 12.5677 9.77309 15.2941C9.89012 17.9155 11.7701 20.1544 14.4014 20.7244C16.9157 21.272 19.8716 20.1581 21.1816 17.1054H24.1488C23.7826 18.6355 23.054 19.9256 21.9932 21.0169C20.4605 22.5958 18.5843 23.5108 16.3796 23.6759C11.3435 24.0546 7.50045 20.4319 6.95683 16.1154C6.34526 11.2588 9.73156 7.10359 14.2542 6.40229C19.2978 5.62224 23.2768 9.0387 24.1564 12.9389" fill="#667085"/>
<path d="M66.1963 7.04733H61.7303C61.7832 7.44111 61.7945 7.80113 61.9342 8.14615C62.1796 8.73869 62.5495 9.0012 63.18 8.9937C63.7991 8.9862 64.1125 8.74994 64.3427 8.1124C64.3541 8.08615 64.3654 8.06364 64.3918 8.01864H66.0642C65.9434 8.72368 65.6376 9.29372 65.0713 9.70624C63.9539 10.52 62.1381 10.4825 61.0546 9.62374C60.6393 9.29372 60.3449 8.87369 60.175 8.37866C59.7786 7.21984 59.7597 6.04602 60.1561 4.88345C60.5487 3.73963 61.3642 3.06834 62.5722 2.92208C63.6028 2.79832 64.5541 2.99708 65.3016 3.78838C65.5546 4.0584 65.7471 4.36967 65.8792 4.71469C66.1586 5.44598 66.219 6.20728 66.1963 7.04358M64.3994 5.81351C64.3465 5.41973 64.305 5.07096 64.1351 4.75594C63.9312 4.37717 63.6368 4.12965 63.18 4.09965C62.6968 4.0734 62.3344 4.26091 62.0852 4.66219C61.87 5.00721 61.7719 5.38973 61.7756 5.81351H64.4031H64.3994Z" fill="#667085"/>
<path d="M38.0111 3.07209H39.7741V10.0888H38.0715C37.9885 9.88626 38.0715 9.64999 38.0187 9.42498C37.8752 9.39498 37.8375 9.51873 37.7657 9.58249C37.1202 10.1638 36.3841 10.4188 35.512 10.2163C34.908 10.0775 34.4965 9.72125 34.2511 9.16621C34.0963 8.81744 34.0133 8.44242 34.0095 8.06364C34.0019 6.41354 34.0057 4.76344 34.0057 3.08334H35.7574C35.8404 3.17709 35.7951 3.3046 35.7951 3.42086C35.7951 4.70719 35.7951 5.99352 35.7951 7.2761C35.7951 7.54611 35.8065 7.81238 35.8669 8.0824C35.9839 8.63743 36.3501 8.89245 37.007 8.68618C37.4109 8.55867 37.6827 8.23991 37.9319 7.91739C38.0225 7.80113 37.9923 7.65862 37.9923 7.52361C37.9923 6.12853 37.9923 4.73719 37.9923 3.3421C37.9923 3.26335 37.9998 3.18085 38.0036 3.06834" fill="#667085"/>
<path d="M41.7976 3.05709H43.4851V3.90089C43.6399 3.75463 43.738 3.66462 43.8324 3.57462C44.2854 3.15459 44.8139 2.89583 45.4444 2.89583C46.5807 2.89583 47.3206 3.52212 47.4905 4.63968C47.5396 4.9622 47.566 5.28097 47.566 5.60724C47.5585 6.96108 47.566 8.31491 47.566 9.66499V10.0925H45.803C45.7351 9.98001 45.7691 9.85625 45.7691 9.74C45.7691 8.50992 45.7653 7.2761 45.7691 6.04602C45.7691 5.746 45.7464 5.45348 45.7011 5.15722C45.6105 4.56843 45.1726 4.28341 44.6101 4.46342C44.1722 4.60218 43.889 4.93595 43.6172 5.27722C43.5266 5.38973 43.5719 5.53974 43.5719 5.671C43.5719 7.13359 43.5719 8.59243 43.5719 10.085H41.8014V3.05709H41.7976Z" fill="#667085"/>
<path d="M57.2266 7.73737H58.7857C58.782 8.32241 58.5819 8.82494 58.2648 9.28247C57.8721 9.84875 57.3021 10.1488 56.6264 10.2388C55.4787 10.3963 54.4556 10.1675 53.6817 9.24122C53.3005 8.78369 53.1041 8.23241 52.9947 7.65862C52.8437 6.85232 52.8588 6.04602 53.0588 5.24722C53.5421 3.3121 55.5391 2.33329 57.3776 3.15459C58.3365 3.58212 58.7065 4.40717 58.8008 5.43473H57.2191C57.1096 5.33723 57.1398 5.20222 57.0945 5.08971C56.766 4.29091 55.7467 4.1409 55.2069 4.81595C54.9615 5.12346 54.8671 5.48724 54.8181 5.86601C54.7275 6.54105 54.735 7.21609 54.9426 7.87238C55.037 8.1724 55.2031 8.43492 55.4787 8.61493C56.0941 9.00495 56.8227 8.77244 57.0945 8.1049C57.1398 7.99239 57.1096 7.85738 57.2266 7.74112" fill="#667085"/>
<path d="M67.9631 10.0963V4.57968C67.68 4.48593 67.4157 4.56468 67.1326 4.50843V3.09459C67.3666 2.99708 67.646 3.10584 67.9367 3.02709C67.9593 2.74207 67.9895 2.4533 67.9971 2.16078C68.0046 1.90202 68.0499 1.647 68.1179 1.40324C68.3142 0.713194 68.7672 0.274417 69.4769 0.16191C70.013 0.0756546 70.5566 0.0794049 71.1078 0.248165V1.71826C70.919 1.78951 70.7378 1.68075 70.5566 1.68075C70.0734 1.68075 69.8507 1.85701 69.8129 2.34079C69.794 2.56581 69.8129 2.79457 69.8129 3.05709H70.8586V4.53093H69.8091V10.0963H67.9631Z" fill="#667085"/>
<path d="M53.644 18.8043C53.2589 18.8418 52.8701 18.8193 52.5001 18.8193C52.3944 18.7068 52.4284 18.5943 52.4284 18.4893C52.4284 17.7467 52.4284 17.0004 52.4284 16.2579C52.4284 16.1079 52.4284 15.9579 52.402 15.8116C52.3453 15.5116 52.1415 15.3916 51.8357 15.4553C51.3487 15.5604 51.092 15.8716 51.092 16.3592C51.092 17.0342 51.092 17.713 51.092 18.388C51.092 18.5193 51.1146 18.6543 51.058 18.8043H49.8726V14.6303H50.9976C51.1071 14.7241 51.0203 14.8891 51.1109 14.9978C52.2132 14.184 53.0815 14.454 53.5685 15.1703C53.7157 15.0541 53.8554 14.9303 54.0064 14.8178C54.467 14.4653 54.9804 14.424 55.5127 14.6078C55.9204 14.7503 56.1431 15.0728 56.23 15.4779C56.2715 15.6729 56.2979 15.8754 56.2979 16.0816C56.2904 16.8654 56.2979 17.653 56.2941 18.4368C56.2941 18.5568 56.3281 18.6805 56.2413 18.8081H55.0861C54.9917 18.6918 55.0295 18.5643 55.0295 18.448C55.0295 17.6905 55.0295 16.9329 55.0295 16.1754C55.0295 16.0404 55.0219 15.9054 54.9955 15.7741C54.9502 15.5641 54.7954 15.4553 54.5878 15.4328C54.2103 15.3878 53.7044 15.8266 53.7006 16.2016C53.6968 16.9329 53.7006 17.6642 53.7006 18.3955C53.7006 18.5268 53.7346 18.6655 53.6515 18.8081" fill="#667085"/>
<path d="M39.0833 14.9641H37.8752C37.8488 14.9416 37.8186 14.9266 37.8111 14.9041C37.5845 14.2665 37.2901 14.019 36.72 13.9928C36.0216 13.9553 35.5686 14.2028 35.3157 14.8066C35.0023 15.5641 35.0061 16.3404 35.3346 17.0867C35.6592 17.8217 36.5313 18.0843 37.2335 17.7092C37.5883 17.518 37.728 17.1917 37.8224 16.8129C38.2339 16.7754 38.6378 16.7829 39.038 16.8054C39.038 17.683 38.5095 18.448 37.6789 18.7443C36.8937 19.0293 36.1009 19.0181 35.3308 18.6955C34.4474 18.328 34.0133 17.6005 33.8472 16.7004C33.7339 16.0816 33.7603 15.4666 33.9151 14.8516C34.1982 13.7152 35.1307 12.9427 36.3161 12.8902C37.0862 12.8527 37.8035 12.9877 38.4038 13.5202C38.8303 13.899 39.0153 14.3865 39.0795 14.9603" fill="#667085"/>
<path d="M58.5366 20.4319H57.321V14.6265C57.6909 14.5778 58.0647 14.5965 58.4158 14.6153C58.5441 14.7278 58.4611 14.8741 58.5404 14.9791C58.6725 14.9716 58.748 14.8628 58.8461 14.7991C59.7786 14.1915 60.964 14.5853 61.3 15.6316C61.5189 16.3179 61.5265 17.0117 61.3075 17.7055C60.8809 19.0518 59.4728 19.1718 58.7065 18.6918C58.6612 18.6655 58.6272 18.613 58.5366 18.628V20.4357V20.4319ZM58.529 16.7979C58.529 17.0267 58.529 17.2555 58.529 17.4842C58.529 17.5742 58.5139 17.668 58.5857 17.7505C58.982 18.2305 59.8088 18.118 60.0353 17.5367C60.2467 16.9929 60.2278 16.4267 60.0504 15.8754C59.9409 15.5341 59.6087 15.3578 59.2841 15.4141C58.8461 15.4928 58.529 15.8679 58.529 16.3104C58.529 16.4717 58.529 16.6329 58.529 16.7942" fill="#667085"/>
<path d="M43.9683 18.8006H42.6999C42.6999 18.5643 42.6999 18.3505 42.6999 18.1368C42.6961 17.4205 42.6999 16.7042 42.6772 15.9879C42.6583 15.5191 42.3827 15.3428 41.9335 15.4628C41.4541 15.5941 41.2125 15.9016 41.2125 16.3892V18.7968H39.9893V13.0214H41.1974V15.0841C41.6353 14.6866 42.0619 14.484 42.5828 14.5065C43.3605 14.5365 43.7796 14.8966 43.923 15.6579C43.9532 15.8191 43.9721 15.9766 43.9721 16.1416C43.9721 17.0192 43.9721 17.8967 43.9721 18.8006" fill="#667085"/>
<path d="M47.5622 16.2241C47.6491 15.5604 47.4075 15.3241 47.0979 15.2528C46.5807 15.1328 46.2258 15.3091 45.9805 15.8041H44.9045C44.9347 15.2791 45.1801 14.9116 45.6407 14.7278C46.441 14.409 47.264 14.4128 48.0719 14.6903C48.4947 14.8366 48.7703 15.1516 48.8194 15.6204C48.8382 15.7966 48.8722 15.9691 48.8722 16.1416C48.876 17.0192 48.8722 17.893 48.8722 18.8006C48.4532 18.8381 48.0681 18.8268 47.6717 18.8081C47.6566 18.7143 47.6453 18.6355 47.634 18.5493C47.5962 18.5568 47.5547 18.5493 47.5283 18.568C46.9884 18.9243 46.3957 18.9956 45.7728 18.8943C45.2254 18.8043 44.8215 18.4368 44.7309 17.9455C44.6252 17.3717 44.8706 16.8392 45.3689 16.5692C45.8332 16.3179 46.3466 16.2541 46.8638 16.2241C47.0904 16.2129 47.3206 16.2241 47.566 16.2241M47.5849 16.9779C47.0866 16.9029 46.6222 16.9404 46.3504 17.0567C46.1277 17.1505 45.9993 17.3155 45.9842 17.548C45.9691 17.758 46.0295 17.9455 46.2334 18.0618C46.5807 18.2643 47.264 18.1405 47.5169 17.8292C47.5622 17.773 47.5887 17.713 47.5887 17.6455C47.5887 17.4205 47.5887 17.1955 47.5887 16.9742" fill="#667085"/>
<path d="M51.2543 3.08334H49.5366V10.1113H51.2543V3.08334Z" fill="#667085"/>
<path d="M68.654 16.7304C68.6124 17.413 68.4727 18.073 67.8574 18.5343C67.0684 19.1231 65.4715 19.0781 64.8146 18.3055C64.6448 18.1068 64.5051 17.8967 64.422 17.6492C64.2295 17.0829 64.2106 16.5092 64.3767 15.9354C64.5806 15.2303 65.0374 14.7578 65.7622 14.5928C66.6078 14.4015 67.4157 14.4578 68.0764 15.1066C68.5218 15.5454 68.62 16.1154 68.654 16.7267M67.3553 16.7117C67.378 16.4792 67.344 16.2541 67.276 16.0329C67.1552 15.6504 66.8419 15.4066 66.4757 15.3991C66.1133 15.3916 65.7811 15.6279 65.6603 16.0104C65.5093 16.4867 65.5168 16.9667 65.664 17.443C65.7735 17.803 66.0982 18.0355 66.453 18.043C66.8004 18.0505 67.1212 17.8217 67.2571 17.4655C67.3478 17.2217 67.3817 16.9704 67.3591 16.7117" fill="#667085"/>
<path d="M70.6397 18.8043H69.4354V14.6153C69.8167 14.5815 70.2018 14.5928 70.5793 14.6078C70.6661 14.7541 70.6019 14.8966 70.6434 15.0278C70.7756 15.0466 70.8171 14.9228 70.8964 14.8628C71.2626 14.5965 71.6665 14.4728 72.1233 14.5065C72.8595 14.5553 73.3691 15.0016 73.3918 15.7329C73.4257 16.7454 73.3993 17.758 73.3993 18.7968H72.2177C72.1346 18.703 72.1686 18.5868 72.1686 18.4855C72.1686 17.7955 72.1686 17.1054 72.1686 16.4154C72.1686 16.3479 72.1686 16.2804 72.1686 16.2129C72.1573 15.7254 72.0403 15.5191 71.7269 15.4441C71.4249 15.3728 70.87 15.6429 70.719 15.9316C70.6661 16.0329 70.6812 16.1416 70.6812 16.2504C70.6812 16.9554 70.6812 17.6567 70.6812 18.3618C70.6812 18.493 70.7039 18.6318 70.6397 18.8043Z" fill="#667085"/>
<path d="M63.4782 18.8231C63.0705 18.8568 62.6817 18.8531 62.2626 18.8231V14.6303C62.6515 14.5515 63.0516 14.619 63.4782 14.589V18.8231Z" fill="#667085"/>
<path d="M51.2883 0.311919H49.5102V1.92452H51.2883V0.311919Z" fill="#667085"/>
<path d="M63.5009 13.9253C63.0705 13.9478 62.6704 13.9553 62.2551 13.9178V12.9914H63.4858C63.5273 13.2952 63.5084 13.5952 63.5009 13.9253Z" fill="#667085"/>
<path d="M52.5756 23.3721C52.1868 23.4283 51.798 23.3796 51.4091 23.3983C51.3034 23.1396 51.2392 22.8921 51.0391 22.7083C50.5068 22.2133 49.4876 22.3145 49.0421 22.9146C48.5362 23.5971 48.5211 25.0297 49.0157 25.7272C49.3517 26.1998 49.8235 26.3385 50.3785 26.256C50.8919 26.181 51.2015 25.8772 51.3412 25.3897C51.3563 25.3372 51.3714 25.2885 51.394 25.2209C51.7866 25.1947 52.1755 25.1984 52.6134 25.2209C52.553 26.001 52.251 26.6085 51.5752 26.9986C49.7783 28.0411 47.5736 26.9348 47.3735 24.8834C47.3169 24.2796 47.3282 23.6684 47.5283 23.0796C47.8756 22.0445 48.7288 21.3732 49.8273 21.3095C50.6843 21.257 51.4808 21.4182 52.1 22.0745C52.436 22.4308 52.6096 22.8958 52.5756 23.3721Z" fill="#667085"/>
<path d="M65.7509 23.2146V21.4407C66.1661 21.377 66.555 21.4257 66.9665 21.4032V27.2048C66.5965 27.2686 66.219 27.2273 65.8755 27.2311C65.7282 27.1373 65.8377 26.9761 65.7244 26.8935C65.5848 26.8935 65.5206 27.0173 65.4224 27.0848C64.6561 27.5948 63.4178 27.3811 63.0403 26.376C62.7308 25.5547 62.7194 24.7334 63.0743 23.9309C63.5047 22.9596 64.6183 22.6258 65.5395 23.1546C65.5961 23.1883 65.6452 23.2446 65.7509 23.2108M65.7509 25.0222C65.7509 24.8047 65.7509 24.5909 65.7509 24.3734C65.7509 24.2796 65.7546 24.1934 65.6829 24.1071C65.2903 23.6421 64.4749 23.7359 64.2521 24.2946C64.0294 24.8534 64.037 25.4347 64.2408 25.9972C64.3805 26.3798 64.7052 26.5185 65.1015 26.4098C65.4753 26.3048 65.7509 25.941 65.7509 25.5472V25.0222Z" fill="#667085"/>
<path d="M57.4644 27.2161H56.3092C56.2224 27.0923 56.2602 26.9686 56.2602 26.8523C56.2602 26.0797 56.2602 25.311 56.2564 24.5422C56.2564 24.1146 56.1243 23.9309 55.8223 23.8596C55.3617 23.7509 54.7765 24.1971 54.7728 24.6622C54.7728 25.4985 54.7728 26.3348 54.7728 27.1973C54.3499 27.2761 53.9536 27.2236 53.5307 27.2348V21.437H54.7463C54.8143 22.0783 54.7388 22.7345 54.7879 23.3871C54.9426 23.3796 55.0181 23.2671 55.1125 23.2033C55.5202 22.9258 55.9695 22.8658 56.4376 22.9521C57.0227 23.0608 57.3852 23.4546 57.4833 24.0509C57.5248 24.3134 57.5135 26.9011 57.4644 27.2198" fill="#667085"/>
<path d="M74.2072 25.9672C74.562 25.9485 74.9245 25.9372 75.3171 25.9785C75.2491 26.4773 74.9849 26.8298 74.5771 27.0436C73.7277 27.4823 72.8519 27.4861 72.0025 27.0323C71.4136 26.7173 71.172 26.1623 71.0851 25.5322C71.0323 25.1309 71.0549 24.7222 71.1757 24.3284C71.4325 23.5033 72.0176 23.0608 72.8595 22.9446C73.169 22.8996 73.4824 22.9071 73.7919 22.9746C74.815 23.1958 75.385 23.8784 75.4001 24.9209C75.4001 25.0784 75.4001 25.2397 75.4001 25.431H72.4027C72.3649 26.0235 72.5952 26.4135 73.0407 26.5448C73.5126 26.6835 73.8901 26.4998 74.211 25.9672M72.3951 24.6509H74.1468C74.0788 23.9346 73.7806 23.6234 73.2068 23.6496C72.7273 23.6721 72.4102 24.0546 72.3951 24.6509Z" fill="#667085"/>
<path d="M36.637 25.2959C36.6219 24.3996 36.822 23.7509 37.4562 23.2971C38.5812 22.487 40.3744 22.9558 40.8274 24.1821C41.0728 24.8534 41.0539 25.536 40.7896 26.1998C40.5896 26.7023 40.2083 27.0436 39.6911 27.2123C39.121 27.3961 38.5472 27.4073 37.9696 27.2236C37.0976 26.9498 36.6332 26.226 36.6332 25.2922M37.9017 25.2022C37.9168 25.4347 37.9356 25.7422 38.0866 26.0235C38.2414 26.3198 38.5057 26.4585 38.819 26.4548C39.1286 26.451 39.4042 26.316 39.5363 26.0085C39.7855 25.4385 39.7968 24.8572 39.5476 24.2871C39.4079 23.9759 39.1475 23.8184 38.8001 23.8184C38.4377 23.8184 38.1848 24.0134 38.0413 24.3359C37.9319 24.5834 37.8979 24.8534 37.8979 25.2022" fill="#667085"/>
<path d="M77.4425 27.2198H76.2344V23.0383C76.6006 22.9933 76.9781 23.0121 77.3292 23.0271C77.4576 23.1358 77.3745 23.2858 77.4538 23.3871C77.5859 23.4246 77.6426 23.3046 77.7218 23.2483C78.2277 22.8958 78.7751 22.8321 79.3527 23.0158C79.7944 23.1583 80.0398 23.4883 80.1304 23.9271C80.1719 24.1259 80.1908 24.3284 80.1908 24.5309C80.1983 25.3147 80.1908 26.0985 80.1908 26.8823C80.1908 26.9873 80.2172 27.0998 80.1342 27.2161H78.979C78.8846 27.1036 78.9261 26.9761 78.9223 26.8598C78.9186 26.076 78.9223 25.2922 78.9186 24.5047C78.9186 24.1034 78.7902 23.9346 78.492 23.8596C78.0352 23.7471 77.4425 24.1971 77.4387 24.6584C77.4387 25.4947 77.4387 26.3348 77.4387 27.2161" fill="#667085"/>
<path d="M35.595 22.9671C35.7272 23.0346 35.8367 23.0046 35.9461 23.0121C36.0518 23.0158 36.1613 23.0121 36.2897 23.0121C36.3501 23.3083 36.3123 23.5821 36.3199 23.8709C36.0858 23.9384 35.8669 23.8784 35.6139 23.9234V27.1936C35.1873 27.2723 34.7985 27.2198 34.3681 27.2348V23.9721C34.1529 23.8484 33.9491 23.9459 33.7528 23.8709C33.6848 23.6046 33.7264 23.3271 33.7301 23.0271C33.9378 23.0121 34.1227 23.0008 34.3417 22.9858C34.3568 22.427 34.2926 21.8307 34.8362 21.4782C35.3346 21.1519 35.8933 21.2082 36.4747 21.3245C36.5275 21.6207 36.4935 21.9132 36.4973 22.2245C36.2142 22.2358 35.9235 22.1008 35.7083 22.3333C35.5422 22.5133 35.595 22.7383 35.6026 22.9671" fill="#667085"/>
<path d="M62.0324 21.4257H60.7979V27.2273H62.0324V21.4257Z" fill="#667085"/>
<path d="M69.2315 27.2236H68.0575V23.0383C68.435 22.9971 68.8087 23.0046 69.1674 23.0308C69.2919 23.1771 69.1938 23.3458 69.2882 23.4996C69.5071 23.3458 69.6846 23.1358 69.9337 23.0308C70.1753 22.9258 70.4283 22.8921 70.719 22.9521C70.7831 23.2896 70.7643 23.6271 70.7303 23.9759C70.4434 24.0096 70.1716 23.9459 69.9073 24.0396C69.4165 24.2084 69.2731 24.3771 69.2731 24.8797C69.2731 25.6222 69.2731 26.3648 69.2693 27.1111C69.2693 27.1373 69.258 27.1598 69.2391 27.2273" fill="#667085"/>
<path d="M43.0245 27.2236H41.8165V23.0383C42.1827 22.9971 42.5564 23.0158 42.915 23.0271C43.0547 23.1808 42.949 23.3608 43.0321 23.5408C43.4209 23.1433 43.84 22.8246 44.4704 22.9521C44.5346 23.2858 44.5119 23.6234 44.4817 23.9796C44.3118 23.9796 44.1646 23.9796 44.0212 23.9796C43.7531 23.9759 43.5191 24.0659 43.3001 24.2159C43.1038 24.3471 43.0132 24.5047 43.0207 24.7559C43.0359 25.4835 43.0283 26.2148 43.0283 26.9461V27.2311L43.0245 27.2236Z" fill="#667085"/>
<path d="M58.5215 23.0346H59.7522V27.2423C59.3445 27.2723 58.9443 27.2723 58.5215 27.2423V23.0346Z" fill="#667085"/>
<path d="M58.5215 21.3957H59.7371C59.8126 21.692 59.7635 21.9957 59.7673 22.322C59.352 22.382 58.9518 22.3445 58.5328 22.352C58.4799 22.022 58.4951 21.7182 58.5177 21.3957" fill="#667085"/>
</svg>
