<svg xmlns="http://www.w3.org/2000/svg" id="Layer_2" data-name="Layer 2" viewBox="0 0 160 160"><defs><filter id="drop-shadow-2" filterUnits="userSpaceOnUse"><feOffset dx="1.42" dy="1.42"/><feGaussianBlur result="blur" stdDeviation=".85"/><feFlood flood-color="#231f20" flood-opacity=".66"/><feComposite in2="blur" operator="in"/><feComposite in="SourceGraphic"/></filter><style>.cls-1{fill:#fff;filter:url(#drop-shadow-2);stroke-width:0}.cls-2{stroke-width:0;fill:#2aabab}</style></defs><circle cx="80" cy="80" r="63.92" class="cls-2"/><path d="M88.31 82.82c-.46.03-2.86.18-8.21.18-4.25 0-7.27-.13-8.33-.18-16.44-.72-28.71-3.58-28.71-7.01s12.27-6.28 28.71-7.02v11.18c1.07.08 4.15.26 8.41.26 5.1 0 7.66-.21 8.12-.26V68.8c16.4.73 28.64 3.59 28.64 7.01s-12.24 6.28-28.64 7.01h.02Zm0-15.18v-10h22.89V42.39H48.88v15.25h22.89v10c-18.6.85-32.59 4.54-32.59 8.96s13.99 8.1 32.59 8.96v32.06h16.54V85.55c18.56-.85 32.53-4.54 32.53-8.95s-13.96-8.09-32.53-8.95Zm0 0" class="cls-1"/></svg>