<svg viewBox="0 0 104 30" fill="none" xmlns="http://www.w3.org/2000/svg">
<path d="M16.1717 0C7.74292 0 0.909073 6.71625 0.909073 15C0.909073 23.2838 7.74292 30 16.1717 30C24.6005 30 31.4344 23.2838 31.4344 15C31.4344 6.71625 24.6005 0 16.1717 0ZM16.1717 27.1875C9.32261 27.1875 3.77082 21.7313 3.77082 15C3.77082 8.26875 9.32261 2.8125 16.1717 2.8125C23.0208 2.8125 28.5726 8.26875 28.5726 15C28.5726 21.7313 23.0208 27.1875 16.1717 27.1875Z" fill="#667085"/>
<path d="M41.7863 17.61L39.9548 11.4113H37.5929L40.6339 20.1262H42.8928L45.9682 11.4113H43.6102L41.7863 17.61Z" fill="#667085"/>
<path d="M48.9216 16.3387H52.9776V14.685H48.9216V13.1025H53.2676V11.4113H46.7123V20.1262H53.6568V18.4125H48.9216V16.3387Z" fill="#667085"/>
<path d="M62.8144 14.2388C62.8144 13.4475 62.5244 12.7575 62.1123 12.3038C61.2957 11.4375 60.1396 11.4263 59.2124 11.415H55.2174V20.13H57.4419V17.0175H58.8346L60.5937 20.13H63.0433L60.9981 16.65C61.601 16.4288 62.8182 15.9975 62.8182 14.2425L62.8144 14.2388ZM59.2696 15.4012H57.4343V13.0425H59.3192C59.7847 13.0537 60.6013 13.0912 60.6013 14.2013C60.6013 15.3112 59.5825 15.3862 59.2696 15.4012Z" fill="#667085"/>
<path d="M66.7178 11.4113H64.5085V20.1262H66.7178V11.4113Z" fill="#667085"/>
<path d="M74.6582 15.165C74.1545 14.9925 72.8877 14.7563 71.9453 14.6475C71.5675 14.5988 70.8158 14.4975 70.8158 13.8337C70.8158 13.4137 71.2546 12.9188 72.136 12.9188C72.7008 12.9188 73.2655 13.1288 73.5784 13.3013C73.9294 13.5 74.1812 13.7325 74.4598 14.0062L76.0929 12.8588C75.3259 12.18 74.2194 11.205 72.1742 11.205C70.6403 11.205 68.6066 11.8725 68.6066 14.1188C68.6066 15.9975 70.4533 16.38 70.9913 16.4888C71.4683 16.5863 71.9567 16.65 72.4489 16.71C73.1014 16.7963 73.9943 16.9088 73.9943 17.5988C73.9943 18.2025 73.2388 18.6112 72.3612 18.6112C71.8461 18.6112 71.2432 18.4987 70.6518 18.1912C70.213 17.955 70.0222 17.76 69.797 17.5125L68.1143 18.5625C68.6676 19.1925 69.6597 20.3288 72.1589 20.3288C73.4028 20.3288 74.6849 20.07 75.4862 19.155C75.9517 18.6225 76.1883 17.9325 76.1883 17.3025C76.1883 16.3162 75.6732 15.5362 74.6544 15.165H74.6582Z" fill="#667085"/>
<path d="M80.0917 11.4113H77.8824V20.1262H80.0917V11.4113Z" fill="#667085"/>
<path d="M86.0975 16.9425H88.0817C88.0207 17.4 87.9443 17.8687 87.3644 18.2362C86.9981 18.4725 86.5478 18.57 86.1472 18.57C85.468 18.57 84.8651 18.3 84.5255 17.94C84.0981 17.5088 83.8234 16.7062 83.8234 15.72C83.8234 14.265 84.4645 12.8925 86.1472 12.8925C87.3796 12.8925 87.8909 13.6575 88.2076 14.1262L89.8903 13.125C89.4744 12.5925 88.3335 11.1112 85.9831 11.1112C83.4571 11.1112 81.6103 12.975 81.6103 15.7762C81.6103 18.345 83.129 20.3175 85.6053 20.3175C87.1011 20.3175 87.8528 19.6388 88.2191 19.305V20.1188H89.9514V15.2812H86.0975V16.9425Z" fill="#667085"/>
<path d="M97.2011 17.0025C96.7852 16.2375 96.5715 15.8438 95.8695 14.6213L93.9464 11.4113H91.7753V20.1262H93.8968L93.8357 14.6475C94.4386 15.8063 94.5874 16.08 95.3925 17.3738L97.0523 20.1262H99.2234V11.4113H97.1019L97.2011 17.0025Z" fill="#667085"/>
<path d="M103.466 11.5612L103.238 12.5175L103.001 11.5612H102.555V12.9225H102.837C102.837 12.8438 102.822 11.8275 102.822 11.8275L103.112 12.9225H103.356L103.638 11.8425C103.638 11.8425 103.638 12.33 103.634 12.9225H103.909V11.5612H103.466Z" fill="#667085"/>
<path d="M101.318 11.7975H101.711V12.9225H102.013V11.7975H102.379V11.5612H101.318V11.7975Z" fill="#667085"/>
<path d="M18.961 9.50625L16.2061 14.1975H21.9028L24.6616 9.50625H18.961Z" fill="#667085"/>
<path d="M7.68187 9.50625L16.0611 23.7637L18.8885 18.9487L13.3405 9.50625H7.68187Z" fill="#667085"/>
</svg>
